%TF.GenerationSoftware,KiCad,Pcbnew,6.99.0-unknown-e6dc28fb2e~146~ubuntu21.10.1*%
%TF.CreationDate,2022-01-16T23:48:23-05:00*%
%TF.ProjectId,Alpsterium-pcb,416c7073-7465-4726-9975-6d2d7063622e,rev?*%
%TF.SameCoordinates,Original*%
%TF.FileFunction,Legend,Bot*%
%TF.FilePolarity,Positive*%
%FSLAX46Y46*%
G04 Gerber Fmt 4.6, Leading zero omitted, Abs format (unit mm)*
G04 Created by KiCad (PCBNEW 6.99.0-unknown-e6dc28fb2e~146~ubuntu21.10.1) date 2022-01-16 23:48:23*
%MOMM*%
%LPD*%
G01*
G04 APERTURE LIST*
G04 Aperture macros list*
%AMHorizOval*
0 Thick line with rounded ends*
0 $1 width*
0 $2 $3 position (X,Y) of the first rounded end (center of the circle)*
0 $4 $5 position (X,Y) of the second rounded end (center of the circle)*
0 Add line between two ends*
20,1,$1,$2,$3,$4,$5,0*
0 Add two circle primitives to create the rounded ends*
1,1,$1,$2,$3*
1,1,$1,$4,$5*%
G04 Aperture macros list end*
%TA.AperFunction,Profile*%
%ADD10C,0.150000*%
%TD*%
%ADD11C,1.750000*%
%ADD12C,3.987800*%
%ADD13HorizOval,2.250000X0.655001X0.730000X-0.655001X-0.730000X0*%
%ADD14C,2.250000*%
%ADD15HorizOval,2.250000X0.020000X0.290000X-0.020000X-0.290000X0*%
%ADD16R,1.600000X1.600000*%
%ADD17O,1.600000X1.600000*%
%ADD18C,2.000000*%
%ADD19C,1.701800*%
%ADD20C,3.048000*%
%ADD21HorizOval,2.250000X0.290000X-0.019999X-0.290000X0.019999X0*%
%ADD22HorizOval,2.250000X0.730004X-0.654995X-0.730004X0.654995X0*%
%ADD23O,0.650000X1.000000*%
%ADD24O,0.900000X2.400000*%
%ADD25O,0.900000X1.700000*%
%ADD26C,1.400000*%
%ADD27O,1.400000X1.400000*%
%ADD28HorizOval,2.250000X-0.655001X-0.730000X0.655001X0.730000X0*%
%ADD29HorizOval,2.250000X-0.020000X-0.290000X0.020000X0.290000X0*%
G04 APERTURE END LIST*
D10*
X40451560Y-55313500D02*
G75*
G03*
X37147501Y-58623559I2999J-3307058D01*
G01*
X384810000Y-58617560D02*
G75*
G03*
X381499941Y-55313501I-3307058J-2999D01*
G01*
X381505940Y-201930000D02*
G75*
G03*
X384809999Y-198619941I-2999J3307058D01*
G01*
X384810000Y-58617560D02*
X384809999Y-198619941D01*
X37147500Y-198625940D02*
X37147501Y-58623559D01*
X381505940Y-201930000D02*
X40457559Y-201929999D01*
X40451560Y-55313500D02*
X381499941Y-55313500D01*
X37147500Y-198625940D02*
G75*
G03*
X40457559Y-201929999I3307058J2999D01*
G01*
%LPC*%
D11*
X60634900Y-115887500D03*
D12*
X65714900Y-115887500D03*
D11*
X70794900Y-115887500D03*
D13*
X62559901Y-112617500D03*
D14*
X63214900Y-111887500D03*
D15*
X68234900Y-111097500D03*
D14*
X68254900Y-110807500D03*
D11*
X203676300Y-134937500D03*
D12*
X208756300Y-134937500D03*
D11*
X213836300Y-134937500D03*
D13*
X205601301Y-131667500D03*
D14*
X206256300Y-130937500D03*
D15*
X211276300Y-130147500D03*
D14*
X211296300Y-129857500D03*
D16*
X321967200Y-70054900D03*
D17*
X321967200Y-75134900D03*
D16*
X108530600Y-67574700D03*
D17*
X108530600Y-72654700D03*
D16*
X297229700Y-70054900D03*
D17*
X297229700Y-75134900D03*
D16*
X371442200Y-70054900D03*
D17*
X371442200Y-75134900D03*
D16*
X336102900Y-70054900D03*
D17*
X336102900Y-75134900D03*
D16*
X339636800Y-59680500D03*
D17*
X339636800Y-64760500D03*
D16*
X46981400Y-65094400D03*
D17*
X46981400Y-70174400D03*
D16*
X89094000Y-67574700D03*
D17*
X89094000Y-72654700D03*
D16*
X105291200Y-65094400D03*
D17*
X105291200Y-70174400D03*
D16*
X121488400Y-70054900D03*
D17*
X121488400Y-75134900D03*
D16*
X137685500Y-67574700D03*
D17*
X137685500Y-72654700D03*
D16*
X170079900Y-70054900D03*
D17*
X170079900Y-75134900D03*
D16*
X202474200Y-65094400D03*
D17*
X202474200Y-70174400D03*
D16*
X304297600Y-70054900D03*
D17*
X304297600Y-75134900D03*
D16*
X304297600Y-59680500D03*
D17*
X304297600Y-64760500D03*
D16*
X300763600Y-70054900D03*
D17*
X300763600Y-75134900D03*
D16*
X300763600Y-59680500D03*
D17*
X300763600Y-64760500D03*
D16*
X297229700Y-59680500D03*
D17*
X297229700Y-64760500D03*
D16*
X336102900Y-59680500D03*
D17*
X336102900Y-64760500D03*
D16*
X374976100Y-70054900D03*
D17*
X374976100Y-75134900D03*
D16*
X50220800Y-67574700D03*
D17*
X50220800Y-72654700D03*
D16*
X72896900Y-70054900D03*
D17*
X72896900Y-75134900D03*
D16*
X85854600Y-65094400D03*
D17*
X85854600Y-70174400D03*
D16*
X102051800Y-70054900D03*
D17*
X102051800Y-75134900D03*
D16*
X118248900Y-67574700D03*
D17*
X118248900Y-72654700D03*
D16*
X134446100Y-65094400D03*
D17*
X134446100Y-70174400D03*
D16*
X153882700Y-65094400D03*
D17*
X153882700Y-70174400D03*
D16*
X166840400Y-67574700D03*
D17*
X166840400Y-72654700D03*
D16*
X173319300Y-65094400D03*
D17*
X173319300Y-70174400D03*
D16*
X189516500Y-70054900D03*
D17*
X189516500Y-75134900D03*
D16*
X205713700Y-67373500D03*
D17*
X205713700Y-72453500D03*
D16*
X307831500Y-59680500D03*
D17*
X307831500Y-64760500D03*
D16*
X332569000Y-70054900D03*
D17*
X332569000Y-75134900D03*
D16*
X360840400Y-70054900D03*
D17*
X360840400Y-75134900D03*
D16*
X364374300Y-70054900D03*
D17*
X364374300Y-75134900D03*
D16*
X367908200Y-70054900D03*
D17*
X367908200Y-75134900D03*
D16*
X53460300Y-70054900D03*
D17*
X53460300Y-75134900D03*
D16*
X76136300Y-65094400D03*
D17*
X76136300Y-70174400D03*
D16*
X92333500Y-70054900D03*
D17*
X92333500Y-75134900D03*
D16*
X124727800Y-65094400D03*
D17*
X124727800Y-70174400D03*
D16*
X140925000Y-70054900D03*
D17*
X140925000Y-75134900D03*
D16*
X157122100Y-67574700D03*
D17*
X157122100Y-72654700D03*
D16*
X176558700Y-67574700D03*
D17*
X176558700Y-72654700D03*
D16*
X186277000Y-67373500D03*
D17*
X186277000Y-72453500D03*
D16*
X192755900Y-65094400D03*
D17*
X192755900Y-70174400D03*
D16*
X307831500Y-70054900D03*
D17*
X307831500Y-75134900D03*
D16*
X321967200Y-59680500D03*
D17*
X321967200Y-64760500D03*
D16*
X325501100Y-59680500D03*
D17*
X325501100Y-64760500D03*
D16*
X332569000Y-59680500D03*
D17*
X332569000Y-64760500D03*
D16*
X350238600Y-70054900D03*
D17*
X350238600Y-75134900D03*
D16*
X353772500Y-70054900D03*
D17*
X353772500Y-75134900D03*
D16*
X357306400Y-70054900D03*
D17*
X357306400Y-75134900D03*
D16*
X56699700Y-65094400D03*
D17*
X56699700Y-70174400D03*
D16*
X79375700Y-67574700D03*
D17*
X79375700Y-72654700D03*
D16*
X95572900Y-65094400D03*
D17*
X95572900Y-70174400D03*
D16*
X111770100Y-70054900D03*
D17*
X111770100Y-75134900D03*
D16*
X127967200Y-67574700D03*
D17*
X127967200Y-72654700D03*
D16*
X144164400Y-65094400D03*
D17*
X144164400Y-70174400D03*
D16*
X160361600Y-70054900D03*
D17*
X160361600Y-75134900D03*
D16*
X179798200Y-70054900D03*
D17*
X179798200Y-75134900D03*
D16*
X195995300Y-67373500D03*
D17*
X195995300Y-72453500D03*
D16*
X208953100Y-70054900D03*
D17*
X208953100Y-75134900D03*
D16*
X311365400Y-59680500D03*
D17*
X311365400Y-64760500D03*
D16*
X318433300Y-70054900D03*
D17*
X318433300Y-75134900D03*
D16*
X329035000Y-70054900D03*
D17*
X329035000Y-75134900D03*
D16*
X59939100Y-67574700D03*
D17*
X59939100Y-72654700D03*
D16*
X82615200Y-70054900D03*
D17*
X82615200Y-75134900D03*
D16*
X98812300Y-67574700D03*
D17*
X98812300Y-72654700D03*
D16*
X115009500Y-65094400D03*
D17*
X115009500Y-70174400D03*
D16*
X131206700Y-70054900D03*
D17*
X131206700Y-75134900D03*
D16*
X147403800Y-67574700D03*
D17*
X147403800Y-72654700D03*
D16*
X163601000Y-65094400D03*
D17*
X163601000Y-70174400D03*
D16*
X183037600Y-65094400D03*
D17*
X183037600Y-70174400D03*
D16*
X199234800Y-70054900D03*
D17*
X199234800Y-75134900D03*
D16*
X311365400Y-70054900D03*
D17*
X311365400Y-75134900D03*
D16*
X318433300Y-59680500D03*
D17*
X318433300Y-64760500D03*
D16*
X329035000Y-59680500D03*
D17*
X329035000Y-64760500D03*
D16*
X346704700Y-70054900D03*
D17*
X346704700Y-75134900D03*
D16*
X63178600Y-70054900D03*
D17*
X63178600Y-75134900D03*
D16*
X66418000Y-65094400D03*
D17*
X66418000Y-70174400D03*
D16*
X69657400Y-67574700D03*
D17*
X69657400Y-72654700D03*
D16*
X150643300Y-70054900D03*
D17*
X150643300Y-75134900D03*
D16*
X314899300Y-59680500D03*
D17*
X314899300Y-64760500D03*
D16*
X339636800Y-70054900D03*
D17*
X339636800Y-75134900D03*
D16*
X343170700Y-70054900D03*
D17*
X343170700Y-75134900D03*
D18*
X158284600Y-57289700D03*
X164784600Y-57289700D03*
X158284600Y-61789700D03*
X164784600Y-61789700D03*
D11*
X41751300Y-92075000D03*
D12*
X46831300Y-92075000D03*
D11*
X51911300Y-92075000D03*
D13*
X43676301Y-88805000D03*
D14*
X44331300Y-88075000D03*
D15*
X49351300Y-87285000D03*
D14*
X49371300Y-86995000D03*
D11*
X79715400Y-92075000D03*
D12*
X84795400Y-92075000D03*
D11*
X89875400Y-92075000D03*
D13*
X81640401Y-88805000D03*
D14*
X82295400Y-88075000D03*
D15*
X87315400Y-87285000D03*
D14*
X87335400Y-86995000D03*
D11*
X98755200Y-92075000D03*
D12*
X103835200Y-92075000D03*
D11*
X108915200Y-92075000D03*
D13*
X100680201Y-88805000D03*
D14*
X101335200Y-88075000D03*
D15*
X106355200Y-87285000D03*
D14*
X106375200Y-86995000D03*
D11*
X117795000Y-92075000D03*
D12*
X122875000Y-92075000D03*
D11*
X127955000Y-92075000D03*
D13*
X119720001Y-88805000D03*
D14*
X120375000Y-88075000D03*
D15*
X125395000Y-87285000D03*
D14*
X125415000Y-86995000D03*
D11*
X136840000Y-92075000D03*
D12*
X141920000Y-92075000D03*
D11*
X147000000Y-92075000D03*
D13*
X138765001Y-88805000D03*
D14*
X139420000Y-88075000D03*
D15*
X144440000Y-87285000D03*
D14*
X144460000Y-86995000D03*
D11*
X165430200Y-92075000D03*
D12*
X170510200Y-92075000D03*
D11*
X175590200Y-92075000D03*
D13*
X167355201Y-88805000D03*
D14*
X168010200Y-88075000D03*
D15*
X173030200Y-87285000D03*
D14*
X173050200Y-86995000D03*
D11*
X184480200Y-92075000D03*
D12*
X189560200Y-92075000D03*
D11*
X194640200Y-92075000D03*
D13*
X186405201Y-88805000D03*
D14*
X187060200Y-88075000D03*
D15*
X192080200Y-87285000D03*
D14*
X192100200Y-86995000D03*
D11*
X203520000Y-92075000D03*
D12*
X208600000Y-92075000D03*
D11*
X213680000Y-92075000D03*
D13*
X205445001Y-88805000D03*
D14*
X206100000Y-88075000D03*
D15*
X211120000Y-87285000D03*
D14*
X211140000Y-86995000D03*
D11*
X222559900Y-92075000D03*
D12*
X227639900Y-92075000D03*
D11*
X232719900Y-92075000D03*
D13*
X224484901Y-88805000D03*
D14*
X225139900Y-88075000D03*
D15*
X230159900Y-87285000D03*
D14*
X230179900Y-86995000D03*
D11*
X251150100Y-92075000D03*
D12*
X256230100Y-92075000D03*
D11*
X261310100Y-92075000D03*
D13*
X253075101Y-88805000D03*
D14*
X253730100Y-88075000D03*
D15*
X258750100Y-87285000D03*
D14*
X258770100Y-86995000D03*
D11*
X270190000Y-92075000D03*
D12*
X275270000Y-92075000D03*
D11*
X280350000Y-92075000D03*
D13*
X272115001Y-88805000D03*
D14*
X272770000Y-88075000D03*
D15*
X277790000Y-87285000D03*
D14*
X277810000Y-86995000D03*
D11*
X289234900Y-92075000D03*
D12*
X294314900Y-92075000D03*
D11*
X299394900Y-92075000D03*
D13*
X291159901Y-88805000D03*
D14*
X291814900Y-88075000D03*
D15*
X296834900Y-87285000D03*
D14*
X296854900Y-86995000D03*
D11*
X308075000Y-92075000D03*
D12*
X313155000Y-92075000D03*
D11*
X318235000Y-92075000D03*
D13*
X310000001Y-88805000D03*
D14*
X310655000Y-88075000D03*
D15*
X315675000Y-87285000D03*
D14*
X315695000Y-86995000D03*
D11*
X332263800Y-92075000D03*
D12*
X337343800Y-92075000D03*
D11*
X342423800Y-92075000D03*
D13*
X334188801Y-88805000D03*
D14*
X334843800Y-88075000D03*
D15*
X339863800Y-87285000D03*
D14*
X339883800Y-86995000D03*
D11*
X351155000Y-92075000D03*
D12*
X356235000Y-92075000D03*
D11*
X361315000Y-92075000D03*
D13*
X353080001Y-88805000D03*
D14*
X353735000Y-88075000D03*
D15*
X358755000Y-87285000D03*
D14*
X358775000Y-86995000D03*
D11*
X370363800Y-92075000D03*
D12*
X375443800Y-92075000D03*
D11*
X380523800Y-92075000D03*
D13*
X372288801Y-88805000D03*
D14*
X372943800Y-88075000D03*
D15*
X377963800Y-87285000D03*
D14*
X377983800Y-86995000D03*
D11*
X41584900Y-115887500D03*
D12*
X46664900Y-115887500D03*
D11*
X51744900Y-115887500D03*
D13*
X43509901Y-112617500D03*
D14*
X44164900Y-111887500D03*
D15*
X49184900Y-111097500D03*
D14*
X49204900Y-110807500D03*
D11*
X79684900Y-115887500D03*
D12*
X84764900Y-115887500D03*
D11*
X89844900Y-115887500D03*
D13*
X81609901Y-112617500D03*
D14*
X82264900Y-111887500D03*
D15*
X87284900Y-111097500D03*
D14*
X87304900Y-110807500D03*
D11*
X98740000Y-115887500D03*
D12*
X103820000Y-115887500D03*
D11*
X108900000Y-115887500D03*
D13*
X100665001Y-112617500D03*
D14*
X101320000Y-111887500D03*
D15*
X106340000Y-111097500D03*
D14*
X106360000Y-110807500D03*
D11*
X117815400Y-115887500D03*
D12*
X122895400Y-115887500D03*
D11*
X127975400Y-115887500D03*
D13*
X119740401Y-112617500D03*
D14*
X120395400Y-111887500D03*
D15*
X125415400Y-111097500D03*
D14*
X125435400Y-110807500D03*
D11*
X136885700Y-115887500D03*
D12*
X141965700Y-115887500D03*
D11*
X147045700Y-115887500D03*
D13*
X138810701Y-112617500D03*
D14*
X139465700Y-111887500D03*
D15*
X144485700Y-111097500D03*
D14*
X144505700Y-110807500D03*
D11*
X155961100Y-115887500D03*
D12*
X161041100Y-115887500D03*
D11*
X166121100Y-115887500D03*
D13*
X157886101Y-112617500D03*
D14*
X158541100Y-111887500D03*
D15*
X163561100Y-111097500D03*
D14*
X163581100Y-110807500D03*
D11*
X175036500Y-115887500D03*
D12*
X180116500Y-115887500D03*
D11*
X185196500Y-115887500D03*
D13*
X176961501Y-112617500D03*
D14*
X177616500Y-111887500D03*
D15*
X182636500Y-111097500D03*
D14*
X182656500Y-110807500D03*
D11*
X194076300Y-115887500D03*
D12*
X199156300Y-115887500D03*
D11*
X204236300Y-115887500D03*
D13*
X196001301Y-112617500D03*
D14*
X196656300Y-111887500D03*
D15*
X201676300Y-111097500D03*
D14*
X201696300Y-110807500D03*
D11*
X213116200Y-115887500D03*
D12*
X218196200Y-115887500D03*
D11*
X223276200Y-115887500D03*
D13*
X215041201Y-112617500D03*
D14*
X215696200Y-111887500D03*
D15*
X220716200Y-111097500D03*
D14*
X220736200Y-110807500D03*
D11*
X232181400Y-115887500D03*
D12*
X237261400Y-115887500D03*
D11*
X242341400Y-115887500D03*
D13*
X234106401Y-112617500D03*
D14*
X234761400Y-111887500D03*
D15*
X239781400Y-111097500D03*
D14*
X239801400Y-110807500D03*
D11*
X251206000Y-115887500D03*
D12*
X256286000Y-115887500D03*
D11*
X261366000Y-115887500D03*
D13*
X253131001Y-112617500D03*
D14*
X253786000Y-111887500D03*
D15*
X258806000Y-111097500D03*
D14*
X258826000Y-110807500D03*
D11*
X270261100Y-115887500D03*
D12*
X275341100Y-115887500D03*
D11*
X280421100Y-115887500D03*
D13*
X272186101Y-112617500D03*
D14*
X272841100Y-111887500D03*
D15*
X277861100Y-111097500D03*
D14*
X277881100Y-110807500D03*
D11*
X289401300Y-115887500D03*
D12*
X294481300Y-115887500D03*
D11*
X299561300Y-115887500D03*
D13*
X291326301Y-112617500D03*
D14*
X291981300Y-111887500D03*
D15*
X297001300Y-111097500D03*
D14*
X297021300Y-110807500D03*
D11*
X332084700Y-115887500D03*
D12*
X337164700Y-115887500D03*
D11*
X342244700Y-115887500D03*
D13*
X334009701Y-112617500D03*
D14*
X334664700Y-111887500D03*
D15*
X339684700Y-111097500D03*
D14*
X339704700Y-110807500D03*
D11*
X351149900Y-115887500D03*
D12*
X356229900Y-115887500D03*
D11*
X361309900Y-115887500D03*
D13*
X353074901Y-112617500D03*
D14*
X353729900Y-111887500D03*
D15*
X358749900Y-111097500D03*
D14*
X358769900Y-110807500D03*
D11*
X370363800Y-115887500D03*
D12*
X375443800Y-115887500D03*
D11*
X380523800Y-115887500D03*
D13*
X372288801Y-112617500D03*
D14*
X372943800Y-111887500D03*
D15*
X377963800Y-111097500D03*
D14*
X377983800Y-110807500D03*
D11*
X46513800Y-134937500D03*
D12*
X51593800Y-134937500D03*
D11*
X56673800Y-134937500D03*
D13*
X48438801Y-131667500D03*
D14*
X49093800Y-130937500D03*
D15*
X54113800Y-130147500D03*
D14*
X54133800Y-129857500D03*
D11*
X70326300Y-134937500D03*
D12*
X75406300Y-134937500D03*
D11*
X80486300Y-134937500D03*
D13*
X72251301Y-131667500D03*
D14*
X72906300Y-130937500D03*
D15*
X77926300Y-130147500D03*
D14*
X77946300Y-129857500D03*
D11*
X89376300Y-134937500D03*
D12*
X94456300Y-134937500D03*
D11*
X99536300Y-134937500D03*
D13*
X91301301Y-131667500D03*
D14*
X91956300Y-130937500D03*
D15*
X96976300Y-130147500D03*
D14*
X96996300Y-129857500D03*
D11*
X108426300Y-134937500D03*
D12*
X113506300Y-134937500D03*
D11*
X118586300Y-134937500D03*
D13*
X110351301Y-131667500D03*
D14*
X111006300Y-130937500D03*
D15*
X116026300Y-130147500D03*
D14*
X116046300Y-129857500D03*
D11*
X127476300Y-134937500D03*
D12*
X132556300Y-134937500D03*
D11*
X137636300Y-134937500D03*
D13*
X129401301Y-131667500D03*
D14*
X130056300Y-130937500D03*
D15*
X135076300Y-130147500D03*
D14*
X135096300Y-129857500D03*
D11*
X146526300Y-134937500D03*
D12*
X151606300Y-134937500D03*
D11*
X156686300Y-134937500D03*
D13*
X148451301Y-131667500D03*
D14*
X149106300Y-130937500D03*
D15*
X154126300Y-130147500D03*
D14*
X154146300Y-129857500D03*
D11*
X165576300Y-134937500D03*
D12*
X170656300Y-134937500D03*
D11*
X175736300Y-134937500D03*
D13*
X167501301Y-131667500D03*
D14*
X168156300Y-130937500D03*
D15*
X173176300Y-130147500D03*
D14*
X173196300Y-129857500D03*
D11*
X184626300Y-134937500D03*
D12*
X189706300Y-134937500D03*
D11*
X194786300Y-134937500D03*
D13*
X186551301Y-131667500D03*
D14*
X187206300Y-130937500D03*
D15*
X192226300Y-130147500D03*
D14*
X192246300Y-129857500D03*
D11*
X222726300Y-134937500D03*
D12*
X227806300Y-134937500D03*
D11*
X232886300Y-134937500D03*
D13*
X224651301Y-131667500D03*
D14*
X225306300Y-130937500D03*
D15*
X230326300Y-130147500D03*
D14*
X230346300Y-129857500D03*
D11*
X241776300Y-134937500D03*
D12*
X246856300Y-134937500D03*
D11*
X251936300Y-134937500D03*
D13*
X243701301Y-131667500D03*
D14*
X244356300Y-130937500D03*
D15*
X249376300Y-130147500D03*
D14*
X249396300Y-129857500D03*
D11*
X260826300Y-134937500D03*
D12*
X265906300Y-134937500D03*
D11*
X270986300Y-134937500D03*
D13*
X262751301Y-131667500D03*
D14*
X263406300Y-130937500D03*
D15*
X268426300Y-130147500D03*
D14*
X268446300Y-129857500D03*
D11*
X279876300Y-134937500D03*
D12*
X284956300Y-134937500D03*
D11*
X290036300Y-134937500D03*
D13*
X281801301Y-131667500D03*
D14*
X282456300Y-130937500D03*
D15*
X287476300Y-130147500D03*
D14*
X287496300Y-129857500D03*
D12*
X302895000Y-132524500D03*
X302895000Y-156400500D03*
D19*
X311150000Y-139382500D03*
D12*
X311150000Y-144462500D03*
D19*
X311150000Y-149542500D03*
D20*
X318135000Y-132524500D03*
X318135000Y-156400500D03*
D14*
X313650000Y-148462500D03*
D21*
X315940000Y-146982499D03*
D14*
X316230000Y-147002500D03*
X308650000Y-148962500D03*
D22*
X314420004Y-141307495D03*
D14*
X315150000Y-141962500D03*
D11*
X332094800Y-134937500D03*
D12*
X337174800Y-134937500D03*
D11*
X342254800Y-134937500D03*
D13*
X334019801Y-131667500D03*
D14*
X334674800Y-130937500D03*
D15*
X339694800Y-130147500D03*
D14*
X339714800Y-129857500D03*
D11*
X351149900Y-134937500D03*
D12*
X356229900Y-134937500D03*
D11*
X361309900Y-134937500D03*
D13*
X353074901Y-131667500D03*
D14*
X353729900Y-130937500D03*
D15*
X358749900Y-130147500D03*
D14*
X358769900Y-129857500D03*
D11*
X370215200Y-134937500D03*
D12*
X375295200Y-134937500D03*
D11*
X380375200Y-134937500D03*
D13*
X372140201Y-131667500D03*
D14*
X372795200Y-130937500D03*
D15*
X377815200Y-130147500D03*
D14*
X377835200Y-129857500D03*
D11*
X48742600Y-153987500D03*
D12*
X53822600Y-153987500D03*
D11*
X58902600Y-153987500D03*
D13*
X50667601Y-150717500D03*
D14*
X51322600Y-149987500D03*
D15*
X56342600Y-149197500D03*
D14*
X56362600Y-148907500D03*
D11*
X74935100Y-153987500D03*
D12*
X80015100Y-153987500D03*
D11*
X85095100Y-153987500D03*
D13*
X76860101Y-150717500D03*
D14*
X77515100Y-149987500D03*
D15*
X82535100Y-149197500D03*
D14*
X82555100Y-148907500D03*
D11*
X93969800Y-153987500D03*
D12*
X99049800Y-153987500D03*
D11*
X104129800Y-153987500D03*
D13*
X95894801Y-150717500D03*
D14*
X96549800Y-149987500D03*
D15*
X101569800Y-149197500D03*
D14*
X101589800Y-148907500D03*
D11*
X113040200Y-153987500D03*
D12*
X118120200Y-153987500D03*
D11*
X123200200Y-153987500D03*
D13*
X114965201Y-150717500D03*
D14*
X115620200Y-149987500D03*
D15*
X120640200Y-149197500D03*
D14*
X120660200Y-148907500D03*
D11*
X132085100Y-153987500D03*
D12*
X137165100Y-153987500D03*
D11*
X142245100Y-153987500D03*
D13*
X134010101Y-150717500D03*
D14*
X134665100Y-149987500D03*
D15*
X139685100Y-149197500D03*
D14*
X139705100Y-148907500D03*
D11*
X151140200Y-153987500D03*
D12*
X156220200Y-153987500D03*
D11*
X161300200Y-153987500D03*
D13*
X153065201Y-150717500D03*
D14*
X153720200Y-149987500D03*
D15*
X158740200Y-149197500D03*
D14*
X158760200Y-148907500D03*
D11*
X170174900Y-153987500D03*
D12*
X175254900Y-153987500D03*
D11*
X180334900Y-153987500D03*
D13*
X172099901Y-150717500D03*
D14*
X172754900Y-149987500D03*
D15*
X177774900Y-149197500D03*
D14*
X177794900Y-148907500D03*
D11*
X189219800Y-153987500D03*
D12*
X194299800Y-153987500D03*
D11*
X199379800Y-153987500D03*
D13*
X191144801Y-150717500D03*
D14*
X191799800Y-149987500D03*
D15*
X196819800Y-149197500D03*
D14*
X196839800Y-148907500D03*
D11*
X208280000Y-153987500D03*
D12*
X213360000Y-153987500D03*
D11*
X218440000Y-153987500D03*
D13*
X210205001Y-150717500D03*
D14*
X210860000Y-149987500D03*
D15*
X215880000Y-149197500D03*
D14*
X215900000Y-148907500D03*
D11*
X227330000Y-153987500D03*
D12*
X232410000Y-153987500D03*
D11*
X237490000Y-153987500D03*
D13*
X229255001Y-150717500D03*
D14*
X229910000Y-149987500D03*
D15*
X234930000Y-149197500D03*
D14*
X234950000Y-148907500D03*
D11*
X246380000Y-153987500D03*
D12*
X251460000Y-153987500D03*
D11*
X256540000Y-153987500D03*
D13*
X248305001Y-150717500D03*
D14*
X248960000Y-149987500D03*
D15*
X253980000Y-149197500D03*
D14*
X254000000Y-148907500D03*
D11*
X265455400Y-153987500D03*
D12*
X270535400Y-153987500D03*
D11*
X275615400Y-153987500D03*
D13*
X267380401Y-150717500D03*
D14*
X268035400Y-149987500D03*
D15*
X273055400Y-149197500D03*
D14*
X273075400Y-148907500D03*
D11*
X284638800Y-153987500D03*
D12*
X289718800Y-153987500D03*
D11*
X294798800Y-153987500D03*
D13*
X286563801Y-150717500D03*
D14*
X287218800Y-149987500D03*
D15*
X292238800Y-149197500D03*
D14*
X292258800Y-148907500D03*
D20*
X44418300Y-166052500D03*
D12*
X44418300Y-181292500D03*
D11*
X51276300Y-173037500D03*
D12*
X56356300Y-173037500D03*
D11*
X61436300Y-173037500D03*
D20*
X68294300Y-166052500D03*
D12*
X68294300Y-181292500D03*
D13*
X53201301Y-169767500D03*
D14*
X53856300Y-169037500D03*
D15*
X58876300Y-168247500D03*
D14*
X58896300Y-167957500D03*
D11*
X79851300Y-173037500D03*
D12*
X84931300Y-173037500D03*
D11*
X90011300Y-173037500D03*
D13*
X81776301Y-169767500D03*
D14*
X82431300Y-169037500D03*
D15*
X87451300Y-168247500D03*
D14*
X87471300Y-167957500D03*
D11*
X98901300Y-173037500D03*
D12*
X103981300Y-173037500D03*
D11*
X109061300Y-173037500D03*
D13*
X100826301Y-169767500D03*
D14*
X101481300Y-169037500D03*
D15*
X106501300Y-168247500D03*
D14*
X106521300Y-167957500D03*
D11*
X117951300Y-173037500D03*
D12*
X123031300Y-173037500D03*
D11*
X128111300Y-173037500D03*
D13*
X119876301Y-169767500D03*
D14*
X120531300Y-169037500D03*
D15*
X125551300Y-168247500D03*
D14*
X125571300Y-167957500D03*
D11*
X137001300Y-173037500D03*
D12*
X142081300Y-173037500D03*
D11*
X147161300Y-173037500D03*
D13*
X138926301Y-169767500D03*
D14*
X139581300Y-169037500D03*
D15*
X144601300Y-168247500D03*
D14*
X144621300Y-167957500D03*
D11*
X156051300Y-173037500D03*
D12*
X161131300Y-173037500D03*
D11*
X166211300Y-173037500D03*
D13*
X157976301Y-169767500D03*
D14*
X158631300Y-169037500D03*
D15*
X163651300Y-168247500D03*
D14*
X163671300Y-167957500D03*
D11*
X175101300Y-173037500D03*
D12*
X180181300Y-173037500D03*
D11*
X185261300Y-173037500D03*
D13*
X177026301Y-169767500D03*
D14*
X177681300Y-169037500D03*
D15*
X182701300Y-168247500D03*
D14*
X182721300Y-167957500D03*
D11*
X194151300Y-173037500D03*
D12*
X199231300Y-173037500D03*
D11*
X204311300Y-173037500D03*
D13*
X196076301Y-169767500D03*
D14*
X196731300Y-169037500D03*
D15*
X201751300Y-168247500D03*
D14*
X201771300Y-167957500D03*
D11*
X213201300Y-173037500D03*
D12*
X218281300Y-173037500D03*
D11*
X223361300Y-173037500D03*
D13*
X215126301Y-169767500D03*
D14*
X215781300Y-169037500D03*
D15*
X220801300Y-168247500D03*
D14*
X220821300Y-167957500D03*
D11*
X232251300Y-173037500D03*
D12*
X237331300Y-173037500D03*
D11*
X242411300Y-173037500D03*
D13*
X234176301Y-169767500D03*
D14*
X234831300Y-169037500D03*
D15*
X239851300Y-168247500D03*
D14*
X239871300Y-167957500D03*
D11*
X251301300Y-173037500D03*
D12*
X256381300Y-173037500D03*
D11*
X261461300Y-173037500D03*
D13*
X253226301Y-169767500D03*
D14*
X253881300Y-169037500D03*
D15*
X258901300Y-168247500D03*
D14*
X258921300Y-167957500D03*
D11*
X351155000Y-173037500D03*
D12*
X356235000Y-173037500D03*
D11*
X361315000Y-173037500D03*
D13*
X353080001Y-169767500D03*
D14*
X353735000Y-169037500D03*
D15*
X358755000Y-168247500D03*
D14*
X358775000Y-167957500D03*
D11*
X46513800Y-192087500D03*
D12*
X51593800Y-192087500D03*
D11*
X56673800Y-192087500D03*
D13*
X48438801Y-188817500D03*
D14*
X49093800Y-188087500D03*
D15*
X54113800Y-187297500D03*
D14*
X54133800Y-187007500D03*
D11*
X132238800Y-192087500D03*
D12*
X137318800Y-192087500D03*
D11*
X142398800Y-192087500D03*
D13*
X134163801Y-188817500D03*
D14*
X134818800Y-188087500D03*
D15*
X139838800Y-187297500D03*
D14*
X139858800Y-187007500D03*
D11*
X89376300Y-192087500D03*
D12*
X94456300Y-192087500D03*
D11*
X99536300Y-192087500D03*
D13*
X91301301Y-188817500D03*
D14*
X91956300Y-188087500D03*
D15*
X96976300Y-187297500D03*
D14*
X96996300Y-187007500D03*
D11*
X108426300Y-192087500D03*
D12*
X113506300Y-192087500D03*
D11*
X118586300Y-192087500D03*
D13*
X110351301Y-188817500D03*
D14*
X111006300Y-188087500D03*
D15*
X116026300Y-187297500D03*
D14*
X116046300Y-187007500D03*
D11*
X217963800Y-192087500D03*
D12*
X223043800Y-192087500D03*
D11*
X228123800Y-192087500D03*
D13*
X219888801Y-188817500D03*
D14*
X220543800Y-188087500D03*
D15*
X225563800Y-187297500D03*
D14*
X225583800Y-187007500D03*
D11*
X189388800Y-192087500D03*
D12*
X194468800Y-192087500D03*
D11*
X199548800Y-192087500D03*
D13*
X191313801Y-188817500D03*
D14*
X191968800Y-188087500D03*
D15*
X196988800Y-187297500D03*
D14*
X197008800Y-187007500D03*
D11*
X260826300Y-192087500D03*
D12*
X265906300Y-192087500D03*
D11*
X270986300Y-192087500D03*
D13*
X262751301Y-188817500D03*
D14*
X263406300Y-188087500D03*
D15*
X268426300Y-187297500D03*
D14*
X268446300Y-187007500D03*
D11*
X303688800Y-192087500D03*
D12*
X308768800Y-192087500D03*
D11*
X313848800Y-192087500D03*
D13*
X305613801Y-188817500D03*
D14*
X306268800Y-188087500D03*
D15*
X311288800Y-187297500D03*
D14*
X311308800Y-187007500D03*
D11*
X332110100Y-192087500D03*
D12*
X337190100Y-192087500D03*
D11*
X342270100Y-192087500D03*
D13*
X334035101Y-188817500D03*
D14*
X334690100Y-188087500D03*
D15*
X339710100Y-187297500D03*
D14*
X339730100Y-187007500D03*
D11*
X351149900Y-192087500D03*
D12*
X356229900Y-192087500D03*
D11*
X361309900Y-192087500D03*
D13*
X353074901Y-188817500D03*
D14*
X353729900Y-188087500D03*
D15*
X358749900Y-187297500D03*
D14*
X358769900Y-187007500D03*
D11*
X370205000Y-192087500D03*
D12*
X375285000Y-192087500D03*
D11*
X380365000Y-192087500D03*
D13*
X372130001Y-188817500D03*
D14*
X372785000Y-188087500D03*
D15*
X377805000Y-187297500D03*
D14*
X377825000Y-187007500D03*
D23*
X213991300Y-63897700D03*
X213141300Y-63897700D03*
X212291300Y-63897700D03*
X211441300Y-63897700D03*
X210591300Y-63897700D03*
X209741300Y-63897700D03*
X208891300Y-63897700D03*
X208041300Y-63897700D03*
X208036300Y-62572700D03*
X208886300Y-62572700D03*
X209736300Y-62572700D03*
X210586300Y-62572700D03*
X211436300Y-62572700D03*
X212286300Y-62572700D03*
X213136300Y-62572700D03*
X213991300Y-62572700D03*
D24*
X215341300Y-62917700D03*
D25*
X215341300Y-59537700D03*
D24*
X206691300Y-62917700D03*
D25*
X206691300Y-59537700D03*
D20*
X292068300Y-166052500D03*
D12*
X292068300Y-181292500D03*
D11*
X298926300Y-173037500D03*
D12*
X304006300Y-173037500D03*
D11*
X309086300Y-173037500D03*
D20*
X315944300Y-166052500D03*
D12*
X315944300Y-181292500D03*
D13*
X300851301Y-169767500D03*
D14*
X301506300Y-169037500D03*
D15*
X306526300Y-168247500D03*
D14*
X306546300Y-167957500D03*
D12*
X94456300Y-183832500D03*
D20*
X94456300Y-199072500D03*
D11*
X146526300Y-192087500D03*
D12*
X151606300Y-192087500D03*
D11*
X156686300Y-192087500D03*
D12*
X208756300Y-183832500D03*
D20*
X208756300Y-199072500D03*
D13*
X148451301Y-188817500D03*
D14*
X149106300Y-188087500D03*
D15*
X154126300Y-187297500D03*
D14*
X154146300Y-187007500D03*
D26*
X217487500Y-66833700D03*
D27*
X217487500Y-74453700D03*
D12*
X75438000Y-181292500D03*
D20*
X75438000Y-166052500D03*
D11*
X68580000Y-173037500D03*
D12*
X63500000Y-173037500D03*
D11*
X58420000Y-173037500D03*
D12*
X51562000Y-181292500D03*
D20*
X51562000Y-166052500D03*
D28*
X66654999Y-176307500D03*
D14*
X66000000Y-177037500D03*
D29*
X60980000Y-177827500D03*
D14*
X60960000Y-178117500D03*
X193560200Y-89575000D03*
X194060200Y-94575000D03*
D11*
X113823800Y-173037500D03*
D12*
X108743800Y-173037500D03*
D11*
X103663800Y-173037500D03*
D28*
X111898799Y-176307500D03*
D14*
X111243800Y-177037500D03*
D29*
X106223800Y-177827500D03*
D14*
X106203800Y-178117500D03*
X145920000Y-89575000D03*
X146420000Y-94575000D03*
D16*
X234637500Y-75887500D03*
D17*
X237177500Y-75887500D03*
X239717500Y-75887500D03*
X242257500Y-75887500D03*
X244797500Y-75887500D03*
X247337500Y-75887500D03*
X249877500Y-75887500D03*
X252417500Y-75887500D03*
X254957500Y-75887500D03*
X257497500Y-75887500D03*
X260037500Y-75887500D03*
X262577500Y-75887500D03*
X265117500Y-75887500D03*
X267657500Y-75887500D03*
X270197500Y-75887500D03*
X272737500Y-75887500D03*
X275277500Y-75887500D03*
X277817500Y-75887500D03*
X280357500Y-75887500D03*
X282897500Y-75887500D03*
X282897500Y-60647500D03*
X280357500Y-60647500D03*
X277817500Y-60647500D03*
X275277500Y-60647500D03*
X272737500Y-60647500D03*
X270197500Y-60647500D03*
X267657500Y-60647500D03*
X265117500Y-60647500D03*
X262577500Y-60647500D03*
X260037500Y-60647500D03*
X257497500Y-60647500D03*
X254957500Y-60647500D03*
X252417500Y-60647500D03*
X249877500Y-60647500D03*
X247337500Y-60647500D03*
X244797500Y-60647500D03*
X242257500Y-60647500D03*
X239717500Y-60647500D03*
X237177500Y-60647500D03*
X234637500Y-60647500D03*
D14*
X317155000Y-89575000D03*
X317655000Y-94575000D03*
X126875000Y-89575000D03*
X127375000Y-94575000D03*
X231639900Y-89575000D03*
X232139900Y-94575000D03*
D11*
X308451300Y-173037500D03*
D12*
X313531300Y-173037500D03*
D11*
X318611300Y-173037500D03*
D13*
X310376301Y-169767500D03*
D14*
X311031300Y-169037500D03*
D15*
X316051300Y-168247500D03*
D14*
X316071300Y-167957500D03*
D11*
X94773800Y-173037500D03*
D12*
X89693800Y-173037500D03*
D11*
X84613800Y-173037500D03*
D28*
X92848799Y-176307500D03*
D14*
X92193800Y-177037500D03*
D29*
X87173800Y-177827500D03*
D14*
X87153800Y-178117500D03*
X247618800Y-94575000D03*
X247118800Y-89575000D03*
D11*
X170338800Y-192087500D03*
D12*
X175418800Y-192087500D03*
D11*
X180498800Y-192087500D03*
D13*
X172263801Y-188817500D03*
D14*
X172918800Y-188087500D03*
D15*
X177938800Y-187297500D03*
D14*
X177958800Y-187007500D03*
D11*
X65563800Y-173037500D03*
D12*
X70643800Y-173037500D03*
D11*
X75723800Y-173037500D03*
D13*
X67488801Y-169767500D03*
D14*
X68143800Y-169037500D03*
D15*
X73163800Y-168247500D03*
D14*
X73183800Y-167957500D03*
D11*
X285273800Y-173037500D03*
D12*
X280193800Y-173037500D03*
D11*
X275113800Y-173037500D03*
D28*
X283348799Y-176307500D03*
D14*
X282693800Y-177037500D03*
D29*
X277673800Y-177827500D03*
D14*
X277653800Y-178117500D03*
D11*
X198913800Y-192087500D03*
D12*
X203993800Y-192087500D03*
D11*
X209073800Y-192087500D03*
D13*
X200838801Y-188817500D03*
D14*
X201493800Y-188087500D03*
D15*
X206513800Y-187297500D03*
D14*
X206533800Y-187007500D03*
D11*
X65563800Y-92075000D03*
D12*
X70643800Y-92075000D03*
D11*
X75723800Y-92075000D03*
D13*
X67488801Y-88805000D03*
D14*
X68143800Y-88075000D03*
D15*
X73163800Y-87285000D03*
D14*
X73183800Y-86995000D03*
D11*
X311467500Y-173037500D03*
D12*
X306387500Y-173037500D03*
D11*
X301307500Y-173037500D03*
D28*
X309542499Y-176307500D03*
D14*
X308887500Y-177037500D03*
D29*
X303867500Y-177827500D03*
D14*
X303847500Y-178117500D03*
X85693800Y-94575000D03*
X85193800Y-89575000D03*
D11*
X113823800Y-92075000D03*
D12*
X108743800Y-92075000D03*
D11*
X103663800Y-92075000D03*
D28*
X111898799Y-95345000D03*
D14*
X111243800Y-96075000D03*
D29*
X106223800Y-96865000D03*
D14*
X106203800Y-97155000D03*
X104743800Y-94575000D03*
X104243800Y-89575000D03*
D16*
X287273800Y-192881200D03*
D17*
X282193800Y-192881200D03*
D16*
X282257500Y-196056200D03*
D17*
X287337500Y-196056200D03*
D11*
X151923800Y-173037500D03*
D12*
X146843800Y-173037500D03*
D11*
X141763800Y-173037500D03*
D28*
X149998799Y-176307500D03*
D14*
X149343800Y-177037500D03*
D29*
X144323800Y-177827500D03*
D14*
X144303800Y-178117500D03*
D16*
X73088800Y-190500000D03*
D17*
X78168800Y-190500000D03*
D11*
X241776300Y-192087500D03*
D12*
X246856300Y-192087500D03*
D11*
X251936300Y-192087500D03*
D13*
X243701301Y-188817500D03*
D14*
X244356300Y-188087500D03*
D15*
X249376300Y-187297500D03*
D14*
X249396300Y-187007500D03*
X360235000Y-89575000D03*
X360735000Y-94575000D03*
D11*
X294798800Y-92075000D03*
D12*
X289718800Y-92075000D03*
D11*
X284638800Y-92075000D03*
D28*
X292873799Y-95345000D03*
D14*
X292218800Y-96075000D03*
D29*
X287198800Y-96865000D03*
D14*
X287178800Y-97155000D03*
D20*
X292068300Y-108902500D03*
D12*
X292068300Y-124142500D03*
D11*
X298926300Y-115887500D03*
D12*
X304006300Y-115887500D03*
D11*
X309086300Y-115887500D03*
D20*
X315944300Y-108902500D03*
D12*
X315944300Y-124142500D03*
D13*
X300851301Y-112617500D03*
D14*
X301506300Y-111887500D03*
D15*
X306526300Y-111097500D03*
D14*
X306546300Y-110807500D03*
D11*
X54292500Y-153987500D03*
D12*
X49212500Y-153987500D03*
D11*
X44132500Y-153987500D03*
D28*
X52367499Y-157257500D03*
D14*
X51712500Y-157987500D03*
D29*
X46692500Y-158777500D03*
D14*
X46672500Y-159067500D03*
D11*
X266223800Y-173037500D03*
D12*
X261143800Y-173037500D03*
D11*
X256063800Y-173037500D03*
D28*
X264298799Y-176307500D03*
D14*
X263643800Y-177037500D03*
D29*
X258623800Y-177827500D03*
D14*
X258603800Y-178117500D03*
D11*
X313848800Y-134937500D03*
D12*
X308768800Y-134937500D03*
D11*
X303688800Y-134937500D03*
D28*
X311923799Y-138207500D03*
D14*
X311268800Y-138937500D03*
D29*
X306248800Y-139727500D03*
D14*
X306228800Y-140017500D03*
X279270000Y-89575000D03*
X279770000Y-94575000D03*
D11*
X282257500Y-173037500D03*
D12*
X287337500Y-173037500D03*
D11*
X292417500Y-173037500D03*
D13*
X284182501Y-169767500D03*
D14*
X284837500Y-169037500D03*
D15*
X289857500Y-168247500D03*
D14*
X289877500Y-167957500D03*
D11*
X209073800Y-173037500D03*
D12*
X203993800Y-173037500D03*
D11*
X198913800Y-173037500D03*
D28*
X207148799Y-176307500D03*
D14*
X206493800Y-177037500D03*
D29*
X201473800Y-177827500D03*
D14*
X201453800Y-178117500D03*
X298314900Y-89575000D03*
X298814900Y-94575000D03*
D16*
X73088800Y-186531200D03*
D17*
X78168800Y-186531200D03*
D11*
X160813800Y-192087500D03*
D12*
X165893800Y-192087500D03*
D11*
X170973800Y-192087500D03*
D13*
X162738801Y-188817500D03*
D14*
X163393800Y-188087500D03*
D15*
X168413800Y-187297500D03*
D14*
X168433800Y-187007500D03*
D20*
X229425500Y-199072500D03*
D12*
X229425500Y-183832500D03*
D11*
X222567500Y-192087500D03*
D12*
X217487500Y-192087500D03*
D11*
X212407500Y-192087500D03*
D20*
X205549500Y-199072500D03*
D12*
X205549500Y-183832500D03*
D28*
X220642499Y-195357500D03*
D14*
X219987500Y-196087500D03*
D29*
X214967500Y-196877500D03*
D14*
X214947500Y-197167500D03*
X50831300Y-89575000D03*
X51331300Y-94575000D03*
D12*
X289687000Y-145732500D03*
D20*
X289687000Y-160972500D03*
D11*
X296545000Y-153987500D03*
D12*
X301625000Y-153987500D03*
D11*
X306705000Y-153987500D03*
D12*
X313563000Y-145732500D03*
D20*
X313563000Y-160972500D03*
D13*
X298470001Y-150717500D03*
D14*
X299125000Y-149987500D03*
D15*
X304145000Y-149197500D03*
D14*
X304165000Y-148907500D03*
X123793800Y-94575000D03*
X123293800Y-89575000D03*
D11*
X228123800Y-173037500D03*
D12*
X223043800Y-173037500D03*
D11*
X217963800Y-173037500D03*
D28*
X226198799Y-176307500D03*
D14*
X225543800Y-177037500D03*
D29*
X220523800Y-177827500D03*
D14*
X220503800Y-178117500D03*
D11*
X54292500Y-173037500D03*
D12*
X49212500Y-173037500D03*
D11*
X44132500Y-173037500D03*
D28*
X52367499Y-176307500D03*
D14*
X51712500Y-177037500D03*
D29*
X46692500Y-177827500D03*
D14*
X46672500Y-178117500D03*
D11*
X275748800Y-92075000D03*
D12*
X270668800Y-92075000D03*
D11*
X265588800Y-92075000D03*
D28*
X273823799Y-95345000D03*
D14*
X273168800Y-96075000D03*
D29*
X268148800Y-96865000D03*
D14*
X268128800Y-97155000D03*
D11*
X308451300Y-115887500D03*
D12*
X313531300Y-115887500D03*
D11*
X318611300Y-115887500D03*
D13*
X310376301Y-112617500D03*
D14*
X311031300Y-111887500D03*
D15*
X316051300Y-111097500D03*
D14*
X316071300Y-110807500D03*
D11*
X146526300Y-92075000D03*
D12*
X151606300Y-92075000D03*
D11*
X156686300Y-92075000D03*
D13*
X148451301Y-88805000D03*
D14*
X149106300Y-88075000D03*
D15*
X154126300Y-87285000D03*
D14*
X154146300Y-86995000D03*
D20*
X154019300Y-199072500D03*
D12*
X154019300Y-183832500D03*
D11*
X147161300Y-192087500D03*
D12*
X142081300Y-192087500D03*
D11*
X137001300Y-192087500D03*
D20*
X130143300Y-199072500D03*
D12*
X130143300Y-183832500D03*
D28*
X145236299Y-195357500D03*
D14*
X144581300Y-196087500D03*
D29*
X139561300Y-196877500D03*
D14*
X139541300Y-197167500D03*
D16*
X325437500Y-70326200D03*
D17*
X325437500Y-75406200D03*
D11*
X237648800Y-92075000D03*
D12*
X232568800Y-92075000D03*
D11*
X227488800Y-92075000D03*
D28*
X235723799Y-95345000D03*
D14*
X235068800Y-96075000D03*
D29*
X230048800Y-96865000D03*
D14*
X230028800Y-97155000D03*
X174510200Y-89575000D03*
X175010200Y-94575000D03*
X228568800Y-94575000D03*
X228068800Y-89575000D03*
D11*
X247173800Y-173037500D03*
D12*
X242093800Y-173037500D03*
D11*
X237013800Y-173037500D03*
D28*
X245248799Y-176307500D03*
D14*
X244593800Y-177037500D03*
D29*
X239573800Y-177827500D03*
D14*
X239553800Y-178117500D03*
D16*
X44450000Y-70054900D03*
D17*
X44450000Y-75134900D03*
D14*
X260230100Y-89575000D03*
X260730100Y-94575000D03*
X107835200Y-89575000D03*
X108335200Y-94575000D03*
D26*
X220662500Y-74453700D03*
D27*
X220662500Y-66833700D03*
D14*
X88795400Y-89575000D03*
X89295400Y-94575000D03*
D20*
X192119300Y-199072500D03*
D12*
X192119300Y-183832500D03*
D11*
X185261300Y-192087500D03*
D12*
X180181300Y-192087500D03*
D11*
X175101300Y-192087500D03*
D20*
X168243300Y-199072500D03*
D12*
X168243300Y-183832500D03*
D28*
X183336299Y-195357500D03*
D14*
X182681300Y-196087500D03*
D29*
X177661300Y-196877500D03*
D14*
X177641300Y-197167500D03*
X50831300Y-101481200D03*
X51331300Y-106481200D03*
D11*
X227488800Y-192087500D03*
D12*
X232568800Y-192087500D03*
D11*
X237648800Y-192087500D03*
D13*
X229413801Y-188817500D03*
D14*
X230068800Y-188087500D03*
D15*
X235088800Y-187297500D03*
D14*
X235108800Y-187007500D03*
D11*
X316230000Y-153987500D03*
D12*
X311150000Y-153987500D03*
D11*
X306070000Y-153987500D03*
D28*
X314304999Y-157257500D03*
D14*
X313650000Y-157987500D03*
D29*
X308630000Y-158777500D03*
D14*
X308610000Y-159067500D03*
D11*
X104298800Y-192087500D03*
D12*
X99218800Y-192087500D03*
D11*
X94138800Y-192087500D03*
D28*
X102373799Y-195357500D03*
D14*
X101718800Y-196087500D03*
D29*
X96698800Y-196877500D03*
D14*
X96678800Y-197167500D03*
D11*
X256698800Y-92075000D03*
D12*
X251618800Y-92075000D03*
D11*
X246538800Y-92075000D03*
D28*
X254773799Y-95345000D03*
D14*
X254118800Y-96075000D03*
D29*
X249098800Y-96865000D03*
D14*
X249078800Y-97155000D03*
D11*
X170973800Y-173037500D03*
D12*
X165893800Y-173037500D03*
D11*
X160813800Y-173037500D03*
D28*
X169048799Y-176307500D03*
D14*
X168393800Y-177037500D03*
D29*
X163373800Y-177827500D03*
D14*
X163353800Y-178117500D03*
X341343800Y-89575000D03*
X341843800Y-94575000D03*
X155606300Y-89575000D03*
X156106300Y-94575000D03*
D12*
X308800500Y-181292500D03*
D20*
X308800500Y-166052500D03*
D11*
X301942500Y-173037500D03*
D12*
X296862500Y-173037500D03*
D11*
X291782500Y-173037500D03*
D12*
X284924500Y-181292500D03*
D20*
X284924500Y-166052500D03*
D28*
X300017499Y-176307500D03*
D14*
X299362500Y-177037500D03*
D29*
X294342500Y-177827500D03*
D14*
X294322500Y-178117500D03*
X379443800Y-89575000D03*
X379943800Y-94575000D03*
D11*
X190023800Y-173037500D03*
D12*
X184943800Y-173037500D03*
D11*
X179863800Y-173037500D03*
D28*
X188098799Y-176307500D03*
D14*
X187443800Y-177037500D03*
D29*
X182423800Y-177827500D03*
D14*
X182403800Y-178117500D03*
X266668800Y-94575000D03*
X266168800Y-89575000D03*
D11*
X132873800Y-173037500D03*
D12*
X127793800Y-173037500D03*
D11*
X122713800Y-173037500D03*
D28*
X130948799Y-176307500D03*
D14*
X130293800Y-177037500D03*
D29*
X125273800Y-177827500D03*
D14*
X125253800Y-178117500D03*
D16*
X73088800Y-194468700D03*
D17*
X78168800Y-194468700D03*
D12*
X153955800Y-183832500D03*
D20*
X153955800Y-199072500D03*
D11*
X160813800Y-192087500D03*
D12*
X165893800Y-192087500D03*
D11*
X170973800Y-192087500D03*
D12*
X177831800Y-183832500D03*
D20*
X177831800Y-199072500D03*
D13*
X162738801Y-188817500D03*
D14*
X163393800Y-188087500D03*
D15*
X168413800Y-187297500D03*
D14*
X168433800Y-187007500D03*
X74643800Y-89575000D03*
X75143800Y-94575000D03*
X285718800Y-94575000D03*
X285218800Y-89575000D03*
D11*
X94773800Y-92075000D03*
D12*
X89693800Y-92075000D03*
D11*
X84613800Y-92075000D03*
D28*
X92848799Y-95345000D03*
D14*
X92193800Y-96075000D03*
D29*
X87173800Y-96865000D03*
D14*
X87153800Y-97155000D03*
X212600000Y-89575000D03*
X213100000Y-94575000D03*
D16*
X315118800Y-69913700D03*
D17*
X315118800Y-74993700D03*
D11*
X266223800Y-192087500D03*
D12*
X261143800Y-192087500D03*
D11*
X256063800Y-192087500D03*
D28*
X264298799Y-195357500D03*
D14*
X263643800Y-196087500D03*
D29*
X258623800Y-196877500D03*
D14*
X258603800Y-197167500D03*
D11*
X132873800Y-92075000D03*
D12*
X127793800Y-92075000D03*
D11*
X122713800Y-92075000D03*
D28*
X130948799Y-95345000D03*
D14*
X130293800Y-96075000D03*
D29*
X125273800Y-96865000D03*
D14*
X125253800Y-97155000D03*
D11*
X270351300Y-173037500D03*
D12*
X275431300Y-173037500D03*
D11*
X280511300Y-173037500D03*
D13*
X272276301Y-169767500D03*
D14*
X272931300Y-169037500D03*
D15*
X277951300Y-168247500D03*
D14*
X277971300Y-167957500D03*
M02*
