%TF.GenerationSoftware,KiCad,Pcbnew,6.99.0-unknown-e6dc28fb2e~146~ubuntu21.10.1*%
%TF.CreationDate,2022-01-16T23:48:23-05:00*%
%TF.ProjectId,Alpsterium-pcb,416c7073-7465-4726-9975-6d2d7063622e,rev?*%
%TF.SameCoordinates,Original*%
%TF.FileFunction,Soldermask,Top*%
%TF.FilePolarity,Negative*%
%FSLAX46Y46*%
G04 Gerber Fmt 4.6, Leading zero omitted, Abs format (unit mm)*
G04 Created by KiCad (PCBNEW 6.99.0-unknown-e6dc28fb2e~146~ubuntu21.10.1) date 2022-01-16 23:48:23*
%MOMM*%
%LPD*%
G01*
G04 APERTURE LIST*
%ADD10C,1.500000*%
%TA.AperFunction,Profile*%
%ADD11C,0.150000*%
%TD*%
%ADD12C,1.750000*%
%ADD13C,3.987800*%
%ADD14R,1.600000X1.600000*%
%ADD15O,1.600000X1.600000*%
%ADD16C,2.000000*%
%ADD17C,1.701800*%
%ADD18C,3.048000*%
%ADD19O,0.650000X1.000000*%
%ADD20O,0.900000X2.400000*%
%ADD21O,0.900000X1.700000*%
%ADD22C,1.400000*%
%ADD23O,1.400000X1.400000*%
G04 APERTURE END LIST*
D10*
X45596900Y-59605040D02*
X155096900Y-59605040D01*
X45596900Y-62088310D02*
X155096900Y-62088310D01*
X342596900Y-62088310D02*
X376203900Y-62088310D01*
X342596900Y-59531250D02*
X376203900Y-59531250D01*
X342596900Y-57150000D02*
X376203900Y-57150000D01*
X45596900Y-57121770D02*
X155096900Y-57121770D01*
D11*
X40451560Y-55313500D02*
G75*
G03*
X37147501Y-58623559I2999J-3307058D01*
G01*
X384810000Y-58617560D02*
G75*
G03*
X381499941Y-55313501I-3307058J-2999D01*
G01*
X381505940Y-201930000D02*
G75*
G03*
X384809999Y-198619941I-2999J3307058D01*
G01*
X384810000Y-58617560D02*
X384809999Y-198619941D01*
X37147500Y-198625940D02*
X37147501Y-58623559D01*
X381505940Y-201930000D02*
X40457559Y-201929999D01*
X40451560Y-55313500D02*
X381499941Y-55313500D01*
X37147500Y-198625940D02*
G75*
G03*
X40457559Y-201929999I3307058J2999D01*
G01*
D12*
X60634900Y-115887500D03*
D13*
X65714900Y-115887500D03*
D12*
X70794900Y-115887500D03*
X203676300Y-134937500D03*
D13*
X208756300Y-134937500D03*
D12*
X213836300Y-134937500D03*
D14*
X321967200Y-70054900D03*
D15*
X321967200Y-75134900D03*
D14*
X108530600Y-67574700D03*
D15*
X108530600Y-72654700D03*
D14*
X297229700Y-70054900D03*
D15*
X297229700Y-75134900D03*
D14*
X371442200Y-70054900D03*
D15*
X371442200Y-75134900D03*
D14*
X336102900Y-70054900D03*
D15*
X336102900Y-75134900D03*
D14*
X339636800Y-59680500D03*
D15*
X339636800Y-64760500D03*
D14*
X46981400Y-65094400D03*
D15*
X46981400Y-70174400D03*
D14*
X89094000Y-67574700D03*
D15*
X89094000Y-72654700D03*
D14*
X105291200Y-65094400D03*
D15*
X105291200Y-70174400D03*
D14*
X121488400Y-70054900D03*
D15*
X121488400Y-75134900D03*
D14*
X137685500Y-67574700D03*
D15*
X137685500Y-72654700D03*
D14*
X170079900Y-70054900D03*
D15*
X170079900Y-75134900D03*
D14*
X202474200Y-65094400D03*
D15*
X202474200Y-70174400D03*
D14*
X304297600Y-70054900D03*
D15*
X304297600Y-75134900D03*
D14*
X304297600Y-59680500D03*
D15*
X304297600Y-64760500D03*
D14*
X300763600Y-70054900D03*
D15*
X300763600Y-75134900D03*
D14*
X300763600Y-59680500D03*
D15*
X300763600Y-64760500D03*
D14*
X297229700Y-59680500D03*
D15*
X297229700Y-64760500D03*
D14*
X336102900Y-59680500D03*
D15*
X336102900Y-64760500D03*
D14*
X374976100Y-70054900D03*
D15*
X374976100Y-75134900D03*
D14*
X50220800Y-67574700D03*
D15*
X50220800Y-72654700D03*
D14*
X72896900Y-70054900D03*
D15*
X72896900Y-75134900D03*
D14*
X85854600Y-65094400D03*
D15*
X85854600Y-70174400D03*
D14*
X102051800Y-70054900D03*
D15*
X102051800Y-75134900D03*
D14*
X118248900Y-67574700D03*
D15*
X118248900Y-72654700D03*
D14*
X134446100Y-65094400D03*
D15*
X134446100Y-70174400D03*
D14*
X153882700Y-65094400D03*
D15*
X153882700Y-70174400D03*
D14*
X166840400Y-67574700D03*
D15*
X166840400Y-72654700D03*
D14*
X173319300Y-65094400D03*
D15*
X173319300Y-70174400D03*
D14*
X189516500Y-70054900D03*
D15*
X189516500Y-75134900D03*
D14*
X205713700Y-67373500D03*
D15*
X205713700Y-72453500D03*
D14*
X307831500Y-59680500D03*
D15*
X307831500Y-64760500D03*
D14*
X332569000Y-70054900D03*
D15*
X332569000Y-75134900D03*
D14*
X360840400Y-70054900D03*
D15*
X360840400Y-75134900D03*
D14*
X364374300Y-70054900D03*
D15*
X364374300Y-75134900D03*
D14*
X367908200Y-70054900D03*
D15*
X367908200Y-75134900D03*
D14*
X53460300Y-70054900D03*
D15*
X53460300Y-75134900D03*
D14*
X76136300Y-65094400D03*
D15*
X76136300Y-70174400D03*
D14*
X92333500Y-70054900D03*
D15*
X92333500Y-75134900D03*
D14*
X124727800Y-65094400D03*
D15*
X124727800Y-70174400D03*
D14*
X140925000Y-70054900D03*
D15*
X140925000Y-75134900D03*
D14*
X157122100Y-67574700D03*
D15*
X157122100Y-72654700D03*
D14*
X176558700Y-67574700D03*
D15*
X176558700Y-72654700D03*
D14*
X186277000Y-67373500D03*
D15*
X186277000Y-72453500D03*
D14*
X192755900Y-65094400D03*
D15*
X192755900Y-70174400D03*
D14*
X307831500Y-70054900D03*
D15*
X307831500Y-75134900D03*
D14*
X321967200Y-59680500D03*
D15*
X321967200Y-64760500D03*
D14*
X325501100Y-59680500D03*
D15*
X325501100Y-64760500D03*
D14*
X332569000Y-59680500D03*
D15*
X332569000Y-64760500D03*
D14*
X350238600Y-70054900D03*
D15*
X350238600Y-75134900D03*
D14*
X353772500Y-70054900D03*
D15*
X353772500Y-75134900D03*
D14*
X357306400Y-70054900D03*
D15*
X357306400Y-75134900D03*
D14*
X56699700Y-65094400D03*
D15*
X56699700Y-70174400D03*
D14*
X79375700Y-67574700D03*
D15*
X79375700Y-72654700D03*
D14*
X95572900Y-65094400D03*
D15*
X95572900Y-70174400D03*
D14*
X111770100Y-70054900D03*
D15*
X111770100Y-75134900D03*
D14*
X127967200Y-67574700D03*
D15*
X127967200Y-72654700D03*
D14*
X144164400Y-65094400D03*
D15*
X144164400Y-70174400D03*
D14*
X160361600Y-70054900D03*
D15*
X160361600Y-75134900D03*
D14*
X179798200Y-70054900D03*
D15*
X179798200Y-75134900D03*
D14*
X195995300Y-67373500D03*
D15*
X195995300Y-72453500D03*
D14*
X208953100Y-70054900D03*
D15*
X208953100Y-75134900D03*
D14*
X311365400Y-59680500D03*
D15*
X311365400Y-64760500D03*
D14*
X318433300Y-70054900D03*
D15*
X318433300Y-75134900D03*
D14*
X329035000Y-70054900D03*
D15*
X329035000Y-75134900D03*
D14*
X59939100Y-67574700D03*
D15*
X59939100Y-72654700D03*
D14*
X82615200Y-70054900D03*
D15*
X82615200Y-75134900D03*
D14*
X98812300Y-67574700D03*
D15*
X98812300Y-72654700D03*
D14*
X115009500Y-65094400D03*
D15*
X115009500Y-70174400D03*
D14*
X131206700Y-70054900D03*
D15*
X131206700Y-75134900D03*
D14*
X147403800Y-67574700D03*
D15*
X147403800Y-72654700D03*
D14*
X163601000Y-65094400D03*
D15*
X163601000Y-70174400D03*
D14*
X183037600Y-65094400D03*
D15*
X183037600Y-70174400D03*
D14*
X199234800Y-70054900D03*
D15*
X199234800Y-75134900D03*
D14*
X311365400Y-70054900D03*
D15*
X311365400Y-75134900D03*
D14*
X318433300Y-59680500D03*
D15*
X318433300Y-64760500D03*
D14*
X329035000Y-59680500D03*
D15*
X329035000Y-64760500D03*
D14*
X346704700Y-70054900D03*
D15*
X346704700Y-75134900D03*
D14*
X63178600Y-70054900D03*
D15*
X63178600Y-75134900D03*
D14*
X66418000Y-65094400D03*
D15*
X66418000Y-70174400D03*
D14*
X69657400Y-67574700D03*
D15*
X69657400Y-72654700D03*
D14*
X150643300Y-70054900D03*
D15*
X150643300Y-75134900D03*
D14*
X314899300Y-59680500D03*
D15*
X314899300Y-64760500D03*
D14*
X339636800Y-70054900D03*
D15*
X339636800Y-75134900D03*
D14*
X343170700Y-70054900D03*
D15*
X343170700Y-75134900D03*
D16*
X158284600Y-57289700D03*
X164784600Y-57289700D03*
X158284600Y-61789700D03*
X164784600Y-61789700D03*
D12*
X41751300Y-92075000D03*
D13*
X46831300Y-92075000D03*
D12*
X51911300Y-92075000D03*
X79715400Y-92075000D03*
D13*
X84795400Y-92075000D03*
D12*
X89875400Y-92075000D03*
X98755200Y-92075000D03*
D13*
X103835200Y-92075000D03*
D12*
X108915200Y-92075000D03*
X117795000Y-92075000D03*
D13*
X122875000Y-92075000D03*
D12*
X127955000Y-92075000D03*
X136840000Y-92075000D03*
D13*
X141920000Y-92075000D03*
D12*
X147000000Y-92075000D03*
X165430200Y-92075000D03*
D13*
X170510200Y-92075000D03*
D12*
X175590200Y-92075000D03*
X184480200Y-92075000D03*
D13*
X189560200Y-92075000D03*
D12*
X194640200Y-92075000D03*
X203520000Y-92075000D03*
D13*
X208600000Y-92075000D03*
D12*
X213680000Y-92075000D03*
X222559900Y-92075000D03*
D13*
X227639900Y-92075000D03*
D12*
X232719900Y-92075000D03*
X251150100Y-92075000D03*
D13*
X256230100Y-92075000D03*
D12*
X261310100Y-92075000D03*
X270190000Y-92075000D03*
D13*
X275270000Y-92075000D03*
D12*
X280350000Y-92075000D03*
X289234900Y-92075000D03*
D13*
X294314900Y-92075000D03*
D12*
X299394900Y-92075000D03*
X308075000Y-92075000D03*
D13*
X313155000Y-92075000D03*
D12*
X318235000Y-92075000D03*
X332263800Y-92075000D03*
D13*
X337343800Y-92075000D03*
D12*
X342423800Y-92075000D03*
X351155000Y-92075000D03*
D13*
X356235000Y-92075000D03*
D12*
X361315000Y-92075000D03*
X370363800Y-92075000D03*
D13*
X375443800Y-92075000D03*
D12*
X380523800Y-92075000D03*
X41584900Y-115887500D03*
D13*
X46664900Y-115887500D03*
D12*
X51744900Y-115887500D03*
X79684900Y-115887500D03*
D13*
X84764900Y-115887500D03*
D12*
X89844900Y-115887500D03*
X98740000Y-115887500D03*
D13*
X103820000Y-115887500D03*
D12*
X108900000Y-115887500D03*
X117815400Y-115887500D03*
D13*
X122895400Y-115887500D03*
D12*
X127975400Y-115887500D03*
X136885700Y-115887500D03*
D13*
X141965700Y-115887500D03*
D12*
X147045700Y-115887500D03*
X155961100Y-115887500D03*
D13*
X161041100Y-115887500D03*
D12*
X166121100Y-115887500D03*
X175036500Y-115887500D03*
D13*
X180116500Y-115887500D03*
D12*
X185196500Y-115887500D03*
X194076300Y-115887500D03*
D13*
X199156300Y-115887500D03*
D12*
X204236300Y-115887500D03*
X213116200Y-115887500D03*
D13*
X218196200Y-115887500D03*
D12*
X223276200Y-115887500D03*
X232181400Y-115887500D03*
D13*
X237261400Y-115887500D03*
D12*
X242341400Y-115887500D03*
X251206000Y-115887500D03*
D13*
X256286000Y-115887500D03*
D12*
X261366000Y-115887500D03*
X270261100Y-115887500D03*
D13*
X275341100Y-115887500D03*
D12*
X280421100Y-115887500D03*
X289401300Y-115887500D03*
D13*
X294481300Y-115887500D03*
D12*
X299561300Y-115887500D03*
X332084700Y-115887500D03*
D13*
X337164700Y-115887500D03*
D12*
X342244700Y-115887500D03*
X351149900Y-115887500D03*
D13*
X356229900Y-115887500D03*
D12*
X361309900Y-115887500D03*
X370363800Y-115887500D03*
D13*
X375443800Y-115887500D03*
D12*
X380523800Y-115887500D03*
X46513800Y-134937500D03*
D13*
X51593800Y-134937500D03*
D12*
X56673800Y-134937500D03*
X70326300Y-134937500D03*
D13*
X75406300Y-134937500D03*
D12*
X80486300Y-134937500D03*
X89376300Y-134937500D03*
D13*
X94456300Y-134937500D03*
D12*
X99536300Y-134937500D03*
X108426300Y-134937500D03*
D13*
X113506300Y-134937500D03*
D12*
X118586300Y-134937500D03*
X127476300Y-134937500D03*
D13*
X132556300Y-134937500D03*
D12*
X137636300Y-134937500D03*
X146526300Y-134937500D03*
D13*
X151606300Y-134937500D03*
D12*
X156686300Y-134937500D03*
X165576300Y-134937500D03*
D13*
X170656300Y-134937500D03*
D12*
X175736300Y-134937500D03*
X184626300Y-134937500D03*
D13*
X189706300Y-134937500D03*
D12*
X194786300Y-134937500D03*
X222726300Y-134937500D03*
D13*
X227806300Y-134937500D03*
D12*
X232886300Y-134937500D03*
X241776300Y-134937500D03*
D13*
X246856300Y-134937500D03*
D12*
X251936300Y-134937500D03*
X260826300Y-134937500D03*
D13*
X265906300Y-134937500D03*
D12*
X270986300Y-134937500D03*
X279876300Y-134937500D03*
D13*
X284956300Y-134937500D03*
D12*
X290036300Y-134937500D03*
D13*
X302895000Y-132524500D03*
X302895000Y-156400500D03*
D17*
X311150000Y-139382500D03*
D13*
X311150000Y-144462500D03*
D17*
X311150000Y-149542500D03*
D18*
X318135000Y-132524500D03*
X318135000Y-156400500D03*
D12*
X332094800Y-134937500D03*
D13*
X337174800Y-134937500D03*
D12*
X342254800Y-134937500D03*
X351149900Y-134937500D03*
D13*
X356229900Y-134937500D03*
D12*
X361309900Y-134937500D03*
X370215200Y-134937500D03*
D13*
X375295200Y-134937500D03*
D12*
X380375200Y-134937500D03*
X48742600Y-153987500D03*
D13*
X53822600Y-153987500D03*
D12*
X58902600Y-153987500D03*
X74935100Y-153987500D03*
D13*
X80015100Y-153987500D03*
D12*
X85095100Y-153987500D03*
X93969800Y-153987500D03*
D13*
X99049800Y-153987500D03*
D12*
X104129800Y-153987500D03*
X113040200Y-153987500D03*
D13*
X118120200Y-153987500D03*
D12*
X123200200Y-153987500D03*
X132085100Y-153987500D03*
D13*
X137165100Y-153987500D03*
D12*
X142245100Y-153987500D03*
X151140200Y-153987500D03*
D13*
X156220200Y-153987500D03*
D12*
X161300200Y-153987500D03*
X170174900Y-153987500D03*
D13*
X175254900Y-153987500D03*
D12*
X180334900Y-153987500D03*
X189219800Y-153987500D03*
D13*
X194299800Y-153987500D03*
D12*
X199379800Y-153987500D03*
X208280000Y-153987500D03*
D13*
X213360000Y-153987500D03*
D12*
X218440000Y-153987500D03*
X227330000Y-153987500D03*
D13*
X232410000Y-153987500D03*
D12*
X237490000Y-153987500D03*
X246380000Y-153987500D03*
D13*
X251460000Y-153987500D03*
D12*
X256540000Y-153987500D03*
X265455400Y-153987500D03*
D13*
X270535400Y-153987500D03*
D12*
X275615400Y-153987500D03*
X284638800Y-153987500D03*
D13*
X289718800Y-153987500D03*
D12*
X294798800Y-153987500D03*
D18*
X44418300Y-166052500D03*
D13*
X44418300Y-181292500D03*
D12*
X51276300Y-173037500D03*
D13*
X56356300Y-173037500D03*
D12*
X61436300Y-173037500D03*
D18*
X68294300Y-166052500D03*
D13*
X68294300Y-181292500D03*
D12*
X79851300Y-173037500D03*
D13*
X84931300Y-173037500D03*
D12*
X90011300Y-173037500D03*
X98901300Y-173037500D03*
D13*
X103981300Y-173037500D03*
D12*
X109061300Y-173037500D03*
X117951300Y-173037500D03*
D13*
X123031300Y-173037500D03*
D12*
X128111300Y-173037500D03*
X137001300Y-173037500D03*
D13*
X142081300Y-173037500D03*
D12*
X147161300Y-173037500D03*
X156051300Y-173037500D03*
D13*
X161131300Y-173037500D03*
D12*
X166211300Y-173037500D03*
X175101300Y-173037500D03*
D13*
X180181300Y-173037500D03*
D12*
X185261300Y-173037500D03*
X194151300Y-173037500D03*
D13*
X199231300Y-173037500D03*
D12*
X204311300Y-173037500D03*
X213201300Y-173037500D03*
D13*
X218281300Y-173037500D03*
D12*
X223361300Y-173037500D03*
X232251300Y-173037500D03*
D13*
X237331300Y-173037500D03*
D12*
X242411300Y-173037500D03*
X251301300Y-173037500D03*
D13*
X256381300Y-173037500D03*
D12*
X261461300Y-173037500D03*
X351155000Y-173037500D03*
D13*
X356235000Y-173037500D03*
D12*
X361315000Y-173037500D03*
X46513800Y-192087500D03*
D13*
X51593800Y-192087500D03*
D12*
X56673800Y-192087500D03*
X132238800Y-192087500D03*
D13*
X137318800Y-192087500D03*
D12*
X142398800Y-192087500D03*
X89376300Y-192087500D03*
D13*
X94456300Y-192087500D03*
D12*
X99536300Y-192087500D03*
X108426300Y-192087500D03*
D13*
X113506300Y-192087500D03*
D12*
X118586300Y-192087500D03*
X217963800Y-192087500D03*
D13*
X223043800Y-192087500D03*
D12*
X228123800Y-192087500D03*
X189388800Y-192087500D03*
D13*
X194468800Y-192087500D03*
D12*
X199548800Y-192087500D03*
X260826300Y-192087500D03*
D13*
X265906300Y-192087500D03*
D12*
X270986300Y-192087500D03*
X303688800Y-192087500D03*
D13*
X308768800Y-192087500D03*
D12*
X313848800Y-192087500D03*
X332110100Y-192087500D03*
D13*
X337190100Y-192087500D03*
D12*
X342270100Y-192087500D03*
X351149900Y-192087500D03*
D13*
X356229900Y-192087500D03*
D12*
X361309900Y-192087500D03*
X370205000Y-192087500D03*
D13*
X375285000Y-192087500D03*
D12*
X380365000Y-192087500D03*
D19*
X213991300Y-63897700D03*
X213141300Y-63897700D03*
X212291300Y-63897700D03*
X211441300Y-63897700D03*
X210591300Y-63897700D03*
X209741300Y-63897700D03*
X208891300Y-63897700D03*
X208041300Y-63897700D03*
X208036300Y-62572700D03*
X208886300Y-62572700D03*
X209736300Y-62572700D03*
X210586300Y-62572700D03*
X211436300Y-62572700D03*
X212286300Y-62572700D03*
X213136300Y-62572700D03*
X213991300Y-62572700D03*
D20*
X215341300Y-62917700D03*
D21*
X215341300Y-59537700D03*
D20*
X206691300Y-62917700D03*
D21*
X206691300Y-59537700D03*
D18*
X292068300Y-166052500D03*
D13*
X292068300Y-181292500D03*
D12*
X298926300Y-173037500D03*
D13*
X304006300Y-173037500D03*
D12*
X309086300Y-173037500D03*
D18*
X315944300Y-166052500D03*
D13*
X315944300Y-181292500D03*
X94456300Y-183832500D03*
D18*
X94456300Y-199072500D03*
D12*
X146526300Y-192087500D03*
D13*
X151606300Y-192087500D03*
D12*
X156686300Y-192087500D03*
D13*
X208756300Y-183832500D03*
D18*
X208756300Y-199072500D03*
D22*
X217487500Y-66833700D03*
D23*
X217487500Y-74453700D03*
D13*
X75438000Y-181292500D03*
D18*
X75438000Y-166052500D03*
D12*
X68580000Y-173037500D03*
D13*
X63500000Y-173037500D03*
D12*
X58420000Y-173037500D03*
D13*
X51562000Y-181292500D03*
D18*
X51562000Y-166052500D03*
D12*
X113823800Y-173037500D03*
D13*
X108743800Y-173037500D03*
D12*
X103663800Y-173037500D03*
D14*
X234637500Y-75887500D03*
D15*
X237177500Y-75887500D03*
X239717500Y-75887500D03*
X242257500Y-75887500D03*
X244797500Y-75887500D03*
X247337500Y-75887500D03*
X249877500Y-75887500D03*
X252417500Y-75887500D03*
X254957500Y-75887500D03*
X257497500Y-75887500D03*
X260037500Y-75887500D03*
X262577500Y-75887500D03*
X265117500Y-75887500D03*
X267657500Y-75887500D03*
X270197500Y-75887500D03*
X272737500Y-75887500D03*
X275277500Y-75887500D03*
X277817500Y-75887500D03*
X280357500Y-75887500D03*
X282897500Y-75887500D03*
X282897500Y-60647500D03*
X280357500Y-60647500D03*
X277817500Y-60647500D03*
X275277500Y-60647500D03*
X272737500Y-60647500D03*
X270197500Y-60647500D03*
X267657500Y-60647500D03*
X265117500Y-60647500D03*
X262577500Y-60647500D03*
X260037500Y-60647500D03*
X257497500Y-60647500D03*
X254957500Y-60647500D03*
X252417500Y-60647500D03*
X249877500Y-60647500D03*
X247337500Y-60647500D03*
X244797500Y-60647500D03*
X242257500Y-60647500D03*
X239717500Y-60647500D03*
X237177500Y-60647500D03*
X234637500Y-60647500D03*
D12*
X308451300Y-173037500D03*
D13*
X313531300Y-173037500D03*
D12*
X318611300Y-173037500D03*
X94773800Y-173037500D03*
D13*
X89693800Y-173037500D03*
D12*
X84613800Y-173037500D03*
X170338800Y-192087500D03*
D13*
X175418800Y-192087500D03*
D12*
X180498800Y-192087500D03*
X65563800Y-173037500D03*
D13*
X70643800Y-173037500D03*
D12*
X75723800Y-173037500D03*
X285273800Y-173037500D03*
D13*
X280193800Y-173037500D03*
D12*
X275113800Y-173037500D03*
X198913800Y-192087500D03*
D13*
X203993800Y-192087500D03*
D12*
X209073800Y-192087500D03*
X65563800Y-92075000D03*
D13*
X70643800Y-92075000D03*
D12*
X75723800Y-92075000D03*
X311467500Y-173037500D03*
D13*
X306387500Y-173037500D03*
D12*
X301307500Y-173037500D03*
X113823800Y-92075000D03*
D13*
X108743800Y-92075000D03*
D12*
X103663800Y-92075000D03*
D14*
X287273800Y-192881200D03*
D15*
X282193800Y-192881200D03*
D14*
X282257500Y-196056200D03*
D15*
X287337500Y-196056200D03*
D12*
X151923800Y-173037500D03*
D13*
X146843800Y-173037500D03*
D12*
X141763800Y-173037500D03*
D14*
X73088800Y-190500000D03*
D15*
X78168800Y-190500000D03*
D12*
X241776300Y-192087500D03*
D13*
X246856300Y-192087500D03*
D12*
X251936300Y-192087500D03*
X294798800Y-92075000D03*
D13*
X289718800Y-92075000D03*
D12*
X284638800Y-92075000D03*
D18*
X292068300Y-108902500D03*
D13*
X292068300Y-124142500D03*
D12*
X298926300Y-115887500D03*
D13*
X304006300Y-115887500D03*
D12*
X309086300Y-115887500D03*
D18*
X315944300Y-108902500D03*
D13*
X315944300Y-124142500D03*
D12*
X54292500Y-153987500D03*
D13*
X49212500Y-153987500D03*
D12*
X44132500Y-153987500D03*
X266223800Y-173037500D03*
D13*
X261143800Y-173037500D03*
D12*
X256063800Y-173037500D03*
X313848800Y-134937500D03*
D13*
X308768800Y-134937500D03*
D12*
X303688800Y-134937500D03*
X282257500Y-173037500D03*
D13*
X287337500Y-173037500D03*
D12*
X292417500Y-173037500D03*
X209073800Y-173037500D03*
D13*
X203993800Y-173037500D03*
D12*
X198913800Y-173037500D03*
D14*
X73088800Y-186531200D03*
D15*
X78168800Y-186531200D03*
D12*
X160813800Y-192087500D03*
D13*
X165893800Y-192087500D03*
D12*
X170973800Y-192087500D03*
D18*
X229425500Y-199072500D03*
D13*
X229425500Y-183832500D03*
D12*
X222567500Y-192087500D03*
D13*
X217487500Y-192087500D03*
D12*
X212407500Y-192087500D03*
D18*
X205549500Y-199072500D03*
D13*
X205549500Y-183832500D03*
X289687000Y-145732500D03*
D18*
X289687000Y-160972500D03*
D12*
X296545000Y-153987500D03*
D13*
X301625000Y-153987500D03*
D12*
X306705000Y-153987500D03*
D13*
X313563000Y-145732500D03*
D18*
X313563000Y-160972500D03*
D12*
X228123800Y-173037500D03*
D13*
X223043800Y-173037500D03*
D12*
X217963800Y-173037500D03*
X54292500Y-173037500D03*
D13*
X49212500Y-173037500D03*
D12*
X44132500Y-173037500D03*
X275748800Y-92075000D03*
D13*
X270668800Y-92075000D03*
D12*
X265588800Y-92075000D03*
X308451300Y-115887500D03*
D13*
X313531300Y-115887500D03*
D12*
X318611300Y-115887500D03*
X146526300Y-92075000D03*
D13*
X151606300Y-92075000D03*
D12*
X156686300Y-92075000D03*
D18*
X154019300Y-199072500D03*
D13*
X154019300Y-183832500D03*
D12*
X147161300Y-192087500D03*
D13*
X142081300Y-192087500D03*
D12*
X137001300Y-192087500D03*
D18*
X130143300Y-199072500D03*
D13*
X130143300Y-183832500D03*
D14*
X325437500Y-70326200D03*
D15*
X325437500Y-75406200D03*
D12*
X237648800Y-92075000D03*
D13*
X232568800Y-92075000D03*
D12*
X227488800Y-92075000D03*
X247173800Y-173037500D03*
D13*
X242093800Y-173037500D03*
D12*
X237013800Y-173037500D03*
D14*
X44450000Y-70054900D03*
D15*
X44450000Y-75134900D03*
D22*
X220662500Y-74453700D03*
D23*
X220662500Y-66833700D03*
D18*
X192119300Y-199072500D03*
D13*
X192119300Y-183832500D03*
D12*
X185261300Y-192087500D03*
D13*
X180181300Y-192087500D03*
D12*
X175101300Y-192087500D03*
D18*
X168243300Y-199072500D03*
D13*
X168243300Y-183832500D03*
D12*
X227488800Y-192087500D03*
D13*
X232568800Y-192087500D03*
D12*
X237648800Y-192087500D03*
X316230000Y-153987500D03*
D13*
X311150000Y-153987500D03*
D12*
X306070000Y-153987500D03*
X104298800Y-192087500D03*
D13*
X99218800Y-192087500D03*
D12*
X94138800Y-192087500D03*
X256698800Y-92075000D03*
D13*
X251618800Y-92075000D03*
D12*
X246538800Y-92075000D03*
X170973800Y-173037500D03*
D13*
X165893800Y-173037500D03*
D12*
X160813800Y-173037500D03*
D13*
X308800500Y-181292500D03*
D18*
X308800500Y-166052500D03*
D12*
X301942500Y-173037500D03*
D13*
X296862500Y-173037500D03*
D12*
X291782500Y-173037500D03*
D13*
X284924500Y-181292500D03*
D18*
X284924500Y-166052500D03*
D12*
X190023800Y-173037500D03*
D13*
X184943800Y-173037500D03*
D12*
X179863800Y-173037500D03*
X132873800Y-173037500D03*
D13*
X127793800Y-173037500D03*
D12*
X122713800Y-173037500D03*
D14*
X73088800Y-194468700D03*
D15*
X78168800Y-194468700D03*
D13*
X153955800Y-183832500D03*
D18*
X153955800Y-199072500D03*
D12*
X160813800Y-192087500D03*
D13*
X165893800Y-192087500D03*
D12*
X170973800Y-192087500D03*
D13*
X177831800Y-183832500D03*
D18*
X177831800Y-199072500D03*
D12*
X94773800Y-92075000D03*
D13*
X89693800Y-92075000D03*
D12*
X84613800Y-92075000D03*
D14*
X315118800Y-69913700D03*
D15*
X315118800Y-74993700D03*
D12*
X266223800Y-192087500D03*
D13*
X261143800Y-192087500D03*
D12*
X256063800Y-192087500D03*
X132873800Y-92075000D03*
D13*
X127793800Y-92075000D03*
D12*
X122713800Y-92075000D03*
X270351300Y-173037500D03*
D13*
X275431300Y-173037500D03*
D12*
X280511300Y-173037500D03*
M02*
