M48
; DRILL file {KiCad 6.99.0-unknown-e6dc28fb2e~146~ubuntu21.10.1} date Sun 16 Jan 2022 11:48:21 PM EST
; FORMAT={-:-/ absolute / inch / decimal}
; #@! TF.CreationDate,2022-01-16T23:48:21-05:00
; #@! TF.GenerationSoftware,Kicad,Pcbnew,6.99.0-unknown-e6dc28fb2e~146~ubuntu21.10.1
; #@! TF.FileFunction,Plated,1,2,PTH
FMAT,2
INCH
; #@! TA.AperFunction,Plated,PTH,ViaDrill
T1C0.0157
; #@! TA.AperFunction,Plated,PTH,ComponentDrill
T2C0.0157
; #@! TA.AperFunction,Plated,PTH,ComponentDrill
T3C0.0236
; #@! TA.AperFunction,Plated,PTH,ComponentDrill
T4C0.0276
; #@! TA.AperFunction,Plated,PTH,ComponentDrill
T5C0.0315
; #@! TA.AperFunction,Plated,PTH,ComponentDrill
T6C0.0433
; #@! TA.AperFunction,Plated,PTH,ComponentDrill
T7C0.0579
%
G90
G05
T1
X1.8663Y-2.6769
X2.0Y-3.0313
X2.0937Y-3.3125
X2.1562Y-3.125
X2.2188Y-3.625
X2.875Y-6.3437
X3.0625Y-6.75
X3.125Y-6.25
X3.2395Y-2.6155
X3.3437Y-6.6563
X3.4922Y-3.3226
X3.5Y-7.6875
X3.6325Y-2.5655
X3.75Y-3.4062
X3.8437Y-6.9063
X3.9375Y-7.7813
X3.9668Y-6.5625
X4.0Y-3.1875
X4.125Y-3.2812
X4.164Y-2.8706
X4.1925Y-2.8415
X4.2036Y-2.6896
X4.6875Y-3.2812
X4.7987Y-2.5743
X5.1875Y-3.4062
X5.4571Y-2.5287
X5.4875Y-2.6365
X5.5938Y-3.2188
X5.7188Y-3.2812
X5.9395Y-2.5635
X6.0938Y-2.25
X6.6505Y-2.6215
X6.6562Y-3.2812
X6.7385Y-2.6215
X6.8438Y-3.3125
X6.9035Y-2.5975
X6.9375Y-3.0
X7.0313Y-2.25
X7.0625Y-6.375
X7.0938Y-2.4062
X7.1875Y-6.9063
X7.5Y-6.5937
X7.5625Y-2.3125
X7.7168Y-6.5625
X7.7635Y-3.2283
X7.7812Y-3.3125
X7.8031Y-3.1532
X7.8145Y-2.6885
X7.9375Y-3.3437
X8.0Y-2.4063
X8.0312Y-3.3125
X8.1678Y-2.2351
X8.182Y-2.8627
X8.2935Y-2.5645
X8.327Y-2.5871
X8.3483Y-2.6736
X8.3934Y-2.7201
X8.4062Y-2.9062
X8.5604Y-2.4675
X8.5938Y-2.4375
X8.6111Y-2.5844
X8.75Y-2.8437
X8.7699Y-2.7843
X8.7812Y-2.625
X8.7812Y-3.1875
X8.8125Y-3.1562
X8.875Y-2.875
X8.9688Y-2.7812
X9.0Y-2.8438
X9.0312Y-2.5
X9.0625Y-2.6562
X9.0625Y-3.0625
X9.0645Y-2.7833
X9.0838Y-2.7481
X9.1208Y-2.9738
X9.1222Y-2.7834
X9.1562Y-3.125
X9.1562Y-3.2188
X9.25Y-2.4688
X9.3942Y-2.7397
X9.4254Y-3.3633
X9.586Y-3.0723
X9.625Y-3.2812
X9.7188Y-2.5938
X9.719Y-3.3322
X9.75Y-3.1875
X9.75Y-6.6875
X9.7815Y-3.0507
X9.8431Y-2.4598
X9.875Y-6.9375
X9.9062Y-2.6562
X10.0609Y-2.444
X10.1614Y-2.8978
X10.2188Y-3.3125
X10.2279Y-2.3052
X10.2722Y-3.3633
X10.465Y-3.2307
X10.5Y-3.2812
X10.521Y-3.099
X10.548Y-3.1599
X10.5538Y-2.5471
X10.561Y-3.2777
X10.5625Y-3.2188
X10.6562Y-3.125
X10.75Y-3.1562
X11.0371Y-3.1351
X11.062Y-5.8449
X11.0625Y-2.875
X11.2094Y-2.4234
X11.2974Y-3.2395
X11.375Y-3.4063
X11.4177Y-5.8853
X11.5209Y-5.5313
X11.5625Y-3.3125
X11.6202Y-2.4412
X11.625Y-5.625
X11.6875Y-6.1563
X11.8948Y-2.5076
X11.9059Y-2.4412
X11.9461Y-3.2777
X12.1796Y-3.1781
X12.3205Y-2.6885
X12.3255Y-2.5015
X12.3285Y-2.3985
X12.3611Y-3.2195
X12.3875Y-2.4855
X12.4865Y-2.4195
X12.5405Y-2.6265
X12.5924Y-2.9273
X12.823Y-4.375
X12.8435Y-2.6695
X12.875Y-3.0937
X12.9663Y-3.1538
X13.2098Y-2.4545
X13.2187Y-3.2813
X13.5625Y-3.9063
X14.219Y-3.1474
X14.26Y-3.1064
T2
X8.1904Y-2.4635
X8.1906Y-2.5157
X8.2239Y-2.4635
X8.2241Y-2.5157
X8.2573Y-2.4635
X8.2575Y-2.5157
X8.2908Y-2.4635
X8.291Y-2.5157
X8.3243Y-2.4635
X8.3245Y-2.5157
X8.3577Y-2.4635
X8.3579Y-2.5157
X8.3912Y-2.4635
X8.3914Y-2.5157
X8.4249Y-2.4635
X8.4249Y-2.5157
T4
X8.5625Y-2.6312
X8.5625Y-2.9312
X8.6875Y-2.6312
X8.6875Y-2.9312
T5
X1.75Y-2.7581
X1.75Y-2.9581
X1.8497Y-2.5628
X1.8497Y-2.7628
X1.9772Y-2.6604
X1.9772Y-2.8604
X2.1047Y-2.7581
X2.1047Y-2.9581
X2.2323Y-2.5628
X2.2323Y-2.7628
X2.3598Y-2.6604
X2.3598Y-2.8604
X2.4873Y-2.7581
X2.4873Y-2.9581
X2.6149Y-2.5628
X2.6149Y-2.7628
X2.7424Y-2.6604
X2.7424Y-2.8604
X2.87Y-2.7581
X2.87Y-2.9581
X2.8775Y-7.3437
X2.8775Y-7.5
X2.8775Y-7.6562
X2.9975Y-2.5628
X2.9975Y-2.7628
X3.0775Y-7.3437
X3.0775Y-7.5
X3.0775Y-7.6562
X3.125Y-2.6604
X3.125Y-2.8604
X3.2526Y-2.7581
X3.2526Y-2.9581
X3.3801Y-2.5628
X3.3801Y-2.7628
X3.5076Y-2.6604
X3.5076Y-2.8604
X3.6352Y-2.7581
X3.6352Y-2.9581
X3.7627Y-2.5628
X3.7627Y-2.7628
X3.8902Y-2.6604
X3.8902Y-2.8604
X4.0178Y-2.7581
X4.0178Y-2.9581
X4.1453Y-2.5628
X4.1453Y-2.7628
X4.2729Y-2.6604
X4.2729Y-2.8604
X4.4004Y-2.7581
X4.4004Y-2.9581
X4.5279Y-2.5628
X4.5279Y-2.7628
X4.6555Y-2.6604
X4.6555Y-2.8604
X4.783Y-2.7581
X4.783Y-2.9581
X4.9105Y-2.5628
X4.9105Y-2.7628
X5.0381Y-2.6604
X5.0381Y-2.8604
X5.1656Y-2.7581
X5.1656Y-2.9581
X5.2932Y-2.5628
X5.2932Y-2.7628
X5.4207Y-2.6604
X5.4207Y-2.8604
X5.5482Y-2.7581
X5.5482Y-2.9581
X5.6758Y-2.5628
X5.6758Y-2.7628
X5.8033Y-2.6604
X5.8033Y-2.8604
X5.9308Y-2.7581
X5.9308Y-2.9581
X6.0584Y-2.5628
X6.0584Y-2.7628
X6.1859Y-2.6604
X6.1859Y-2.8604
X6.3134Y-2.7581
X6.3134Y-2.9581
X6.441Y-2.5628
X6.441Y-2.7628
X6.5685Y-2.6604
X6.5685Y-2.8604
X6.6961Y-2.7581
X6.6961Y-2.9581
X6.8236Y-2.5628
X6.8236Y-2.7628
X6.9511Y-2.6604
X6.9511Y-2.8604
X7.0787Y-2.7581
X7.0787Y-2.9581
X7.2062Y-2.5628
X7.2062Y-2.7628
X7.3337Y-2.6525
X7.3337Y-2.8525
X7.4613Y-2.7581
X7.4613Y-2.9581
X7.5888Y-2.5628
X7.5888Y-2.7628
X7.7164Y-2.6525
X7.7164Y-2.8525
X7.8439Y-2.7581
X7.8439Y-2.9581
X7.9714Y-2.5628
X7.9714Y-2.7628
X8.099Y-2.6525
X8.099Y-2.8525
X8.2265Y-2.7581
X8.2265Y-2.9581
X9.2377Y-2.3877
X9.2377Y-2.9877
X9.3377Y-2.3877
X9.3377Y-2.9877
X9.4377Y-2.3877
X9.4377Y-2.9877
X9.5377Y-2.3877
X9.5377Y-2.9877
X9.6377Y-2.3877
X9.6377Y-2.9877
X9.7377Y-2.3877
X9.7377Y-2.9877
X9.8377Y-2.3877
X9.8377Y-2.9877
X9.9377Y-2.3877
X9.9377Y-2.9877
X10.0377Y-2.3877
X10.0377Y-2.9877
X10.1377Y-2.3877
X10.1377Y-2.9877
X10.2377Y-2.3877
X10.2377Y-2.9877
X10.3377Y-2.3877
X10.3377Y-2.9877
X10.4377Y-2.3877
X10.4377Y-2.9877
X10.5377Y-2.3877
X10.5377Y-2.9877
X10.6377Y-2.3877
X10.6377Y-2.9877
X10.7377Y-2.3877
X10.7377Y-2.9877
X10.8377Y-2.3877
X10.8377Y-2.9877
X10.9377Y-2.3877
X10.9377Y-2.9877
X11.0377Y-2.3877
X11.0377Y-2.9877
X11.11Y-7.5937
X11.1125Y-7.7187
X11.1377Y-2.3877
X11.1377Y-2.9877
X11.31Y-7.5937
X11.3125Y-7.7187
X11.702Y-2.3496
X11.702Y-2.5496
X11.702Y-2.7581
X11.702Y-2.9581
X11.8411Y-2.3496
X11.8411Y-2.5496
X11.8411Y-2.7581
X11.8411Y-2.9581
X11.9802Y-2.3496
X11.9802Y-2.5496
X11.9802Y-2.7581
X11.9802Y-2.9581
X12.1194Y-2.3496
X12.1194Y-2.5496
X12.1194Y-2.7581
X12.1194Y-2.9581
X12.2585Y-2.3496
X12.2585Y-2.5496
X12.2585Y-2.7581
X12.2585Y-2.9581
X12.3976Y-2.3496
X12.3976Y-2.5496
X12.4063Y-2.7525
X12.4063Y-2.9525
X12.5367Y-2.3496
X12.5367Y-2.5496
X12.5367Y-2.7581
X12.5367Y-2.9581
X12.6759Y-2.3496
X12.6759Y-2.5496
X12.6759Y-2.7581
X12.6759Y-2.9581
X12.8125Y-2.7687
X12.8125Y-2.9687
X12.815Y-2.3496
X12.815Y-2.5496
X12.9541Y-2.3496
X12.9541Y-2.5496
X12.9541Y-2.7581
X12.9541Y-2.9581
X13.0933Y-2.3496
X13.0933Y-2.5496
X13.0933Y-2.7581
X13.0933Y-2.9581
X13.2324Y-2.3496
X13.2324Y-2.5496
X13.2324Y-2.7581
X13.2324Y-2.9581
X13.3715Y-2.3496
X13.3715Y-2.5496
X13.3715Y-2.7581
X13.3715Y-2.9581
X13.5107Y-2.7581
X13.5107Y-2.9581
X13.6498Y-2.7581
X13.6498Y-2.9581
X13.7889Y-2.7581
X13.7889Y-2.9581
X13.9281Y-2.7581
X13.9281Y-2.9581
X14.0672Y-2.7581
X14.0672Y-2.9581
X14.2063Y-2.7581
X14.2063Y-2.9581
X14.3454Y-2.7581
X14.3454Y-2.9581
X14.4846Y-2.7581
X14.4846Y-2.9581
X14.6237Y-2.7581
X14.6237Y-2.9581
X14.7628Y-2.7581
X14.7628Y-2.9581
T6
X6.2317Y-2.2555
X6.2317Y-2.4327
X6.4876Y-2.2555
X6.4876Y-2.4327
T7
X1.6872Y-4.4625
X1.6938Y-3.525
X1.7388Y-4.405
X1.7453Y-3.4675
X1.8375Y-6.2625
X1.8375Y-7.0125
X1.8391Y-6.2397
X1.8391Y-6.9897
X1.8813Y-5.2125
X1.8813Y-7.4625
X1.9328Y-5.155
X1.9328Y-7.405
X1.9356Y-4.3853
X1.9372Y-4.3625
X1.9422Y-3.4478
X1.9438Y-3.425
X1.969Y-5.9625
X2.0012Y-3.5266
X2.0012Y-3.9953
X2.0206Y-5.905
X2.0209Y-3.7234
X2.0209Y-4.1922
X2.0359Y-6.22
X2.0359Y-6.97
X2.0688Y-6.7125
X2.0875Y-6.1625
X2.0875Y-6.9125
X2.1203Y-6.655
X2.1297Y-5.1353
X2.1297Y-7.3853
X2.1313Y-5.1125
X2.1313Y-7.3625
X2.2174Y-5.8853
X2.219Y-5.8625
X2.3172Y-6.6353
X2.3188Y-6.6125
X2.4Y-7.0125
X2.4016Y-6.9897
X2.4372Y-4.4625
X2.4888Y-4.405
X2.5984Y-6.97
X2.6313Y-3.525
X2.6313Y-6.7125
X2.65Y-6.9125
X2.6828Y-3.4675
X2.6828Y-6.655
X2.6856Y-4.3853
X2.6872Y-4.3625
X2.8188Y-5.2125
X2.8703Y-5.155
X2.8797Y-3.4478
X2.8797Y-6.6353
X2.8813Y-3.425
X2.8813Y-6.6125
X2.9387Y-3.5266
X2.9584Y-3.7234
X3.0002Y-5.9625
X3.0518Y-5.905
X3.0672Y-5.1353
X3.0688Y-5.1125
X3.1872Y-4.4625
X3.1884Y-3.525
X3.1938Y-6.7125
X3.2388Y-4.405
X3.24Y-3.4675
X3.2453Y-6.655
X3.2486Y-5.8853
X3.2502Y-5.8625
X3.3541Y-3.5266
X3.3738Y-3.7234
X3.4313Y-3.825
X3.4313Y-7.0125
X3.4328Y-3.8022
X3.4328Y-6.9897
X3.4356Y-4.3853
X3.4368Y-3.4478
X3.4372Y-4.3625
X3.4384Y-3.425
X3.4422Y-6.6353
X3.4438Y-6.6125
X3.4959Y-3.5266
X3.5156Y-3.7234
X3.5688Y-5.2125
X3.5688Y-7.4625
X3.6203Y-5.155
X3.6203Y-7.405
X3.6297Y-3.7825
X3.6297Y-6.97
X3.6813Y-3.725
X3.6813Y-6.9125
X3.7496Y-5.9625
X3.8012Y-5.905
X3.8063Y-7.7625
X3.8078Y-7.7397
X3.8172Y-5.1353
X3.8172Y-7.3853
X3.8188Y-5.1125
X3.8188Y-7.3625
X3.9374Y-4.4625
X3.938Y-3.525
X3.9438Y-6.7125
X3.989Y-4.405
X3.9896Y-3.4675
X3.9953Y-6.655
X3.998Y-5.8853
X3.9996Y-5.8625
X4.0047Y-7.72
X4.0563Y-7.6625
X4.1041Y-3.5266
X4.1238Y-3.7234
X4.1813Y-3.825
X4.1813Y-7.0125
X4.1828Y-3.8022
X4.1828Y-6.9897
X4.1858Y-4.3853
X4.1864Y-3.4478
X4.1874Y-4.3625
X4.188Y-3.425
X4.1922Y-6.6353
X4.1938Y-6.6125
X4.2455Y-3.5266
X4.2652Y-3.7234
X4.3188Y-5.2125
X4.3188Y-7.4625
X4.3703Y-5.155
X4.3703Y-7.405
X4.3797Y-3.7825
X4.3797Y-6.97
X4.4313Y-3.725
X4.4313Y-6.9125
X4.5004Y-5.9625
X4.552Y-5.905
X4.5672Y-5.1353
X4.5672Y-7.3853
X4.5688Y-5.1125
X4.5688Y-7.3625
X4.6876Y-3.525
X4.6884Y-4.4625
X4.6938Y-6.7125
X4.7392Y-3.4675
X4.74Y-4.405
X4.7453Y-6.655
X4.7488Y-5.8853
X4.7504Y-5.8625
X4.8541Y-3.5266
X4.8738Y-3.7234
X4.9313Y-3.825
X4.9313Y-7.0125
X4.9328Y-3.8022
X4.9328Y-6.9897
X4.936Y-3.4478
X4.9368Y-4.3853
X4.9376Y-3.425
X4.9384Y-4.3625
X4.9422Y-6.6353
X4.9438Y-6.6125
X4.9951Y-3.5266
X5.0148Y-3.7234
X5.0688Y-5.2125
X5.1203Y-5.155
X5.1297Y-3.7825
X5.1297Y-6.97
X5.1813Y-3.725
X5.1813Y-6.9125
X5.2502Y-5.9625
X5.2563Y-7.4625
X5.3018Y-5.905
X5.3078Y-7.405
X5.3172Y-5.1353
X5.3188Y-5.1125
X5.4374Y-3.525
X5.4392Y-4.4625
X5.4438Y-6.7125
X5.489Y-3.4675
X5.4908Y-4.405
X5.4938Y-7.7625
X5.4953Y-6.655
X5.4953Y-7.7397
X5.4986Y-5.8853
X5.5002Y-5.8625
X5.5047Y-7.3853
X5.5063Y-7.3625
X5.6813Y-7.0125
X5.6828Y-6.9897
X5.6858Y-3.4478
X5.6874Y-3.425
X5.6876Y-4.3853
X5.6892Y-4.3625
X5.6922Y-6.6353
X5.6922Y-7.72
X5.6938Y-6.6125
X5.7438Y-7.6625
X5.7449Y-3.5266
X5.7646Y-3.7234
X5.8188Y-3.525
X5.8188Y-5.2125
X5.8188Y-7.4625
X5.8703Y-3.4675
X5.8703Y-5.155
X5.8703Y-7.405
X5.8797Y-6.97
X5.9313Y-6.9125
X6.0004Y-5.9625
X6.052Y-5.905
X6.0672Y-3.4478
X6.0672Y-5.1353
X6.0672Y-7.3853
X6.0688Y-3.425
X6.0688Y-5.1125
X6.0688Y-7.3625
X6.1262Y-3.5266
X6.1459Y-3.7234
X6.1902Y-4.4625
X6.1938Y-6.7125
X6.2418Y-4.405
X6.2453Y-6.655
X6.2488Y-5.8853
X6.2504Y-5.8625
X6.3813Y-7.4625
X6.3813Y-7.4625
X6.4313Y-7.0125
X6.4328Y-6.9897
X6.4328Y-7.405
X6.4328Y-7.405
X6.4386Y-4.3853
X6.4402Y-4.3625
X6.4422Y-6.6353
X6.4438Y-6.6125
X6.563Y-3.525
X6.5688Y-5.2125
X6.6146Y-3.4675
X6.6203Y-5.155
X6.6297Y-6.97
X6.6297Y-7.3853
X6.6297Y-7.3853
X6.6313Y-7.3625
X6.6313Y-7.3625
X6.6813Y-6.9125
X6.7498Y-5.9625
X6.7563Y-7.4625
X6.8014Y-5.905
X6.8078Y-7.405
X6.8114Y-3.4478
X6.813Y-3.425
X6.8172Y-5.1353
X6.8188Y-5.1125
X6.8705Y-3.5266
X6.8902Y-3.7234
X6.9412Y-4.4625
X6.9438Y-6.7125
X6.9928Y-4.405
X6.9938Y-7.7625
X6.9953Y-6.655
X6.9953Y-7.7397
X6.9982Y-5.8853
X6.9998Y-5.8625
X7.0047Y-7.3853
X7.0063Y-7.3625
X7.1813Y-7.0125
X7.1828Y-6.9897
X7.1896Y-4.3853
X7.1912Y-4.3625
X7.1922Y-6.6353
X7.1922Y-7.72
X7.1938Y-6.6125
X7.2438Y-7.6625
X7.313Y-3.525
X7.3188Y-5.2125
X7.3646Y-3.4675
X7.3703Y-5.155
X7.3797Y-6.97
X7.4313Y-6.9125
X7.4996Y-5.9625
X7.5063Y-7.4625
X7.5512Y-5.905
X7.5578Y-7.405
X7.5614Y-3.4478
X7.563Y-3.425
X7.5672Y-5.1353
X7.5688Y-5.1125
X7.6205Y-3.5266
X7.6402Y-3.7234
X7.6908Y-4.4625
X7.6938Y-6.7125
X7.7424Y-4.405
X7.7453Y-6.655
X7.748Y-5.8853
X7.7496Y-5.8625
X7.7547Y-7.3853
X7.7563Y-7.3625
X7.8813Y-7.4625
X7.9313Y-7.0125
X7.9328Y-6.9897
X7.9328Y-7.405
X7.9392Y-4.3853
X7.9408Y-4.3625
X7.9422Y-6.6353
X7.9438Y-6.6125
X8.0626Y-3.525
X8.0688Y-5.2125
X8.1142Y-3.4675
X8.1203Y-5.155
X8.1297Y-6.97
X8.1297Y-7.3853
X8.1313Y-7.3625
X8.1813Y-6.9125
X8.25Y-5.9625
X8.3016Y-5.905
X8.311Y-3.4478
X8.3126Y-3.425
X8.3172Y-5.1353
X8.3188Y-5.1125
X8.3701Y-3.5266
X8.3898Y-3.7234
X8.4404Y-4.4625
X8.4438Y-6.7125
X8.4625Y-7.7625
X8.4641Y-7.7397
X8.492Y-4.405
X8.4953Y-6.655
X8.4984Y-5.8853
X8.5Y-5.8625
X8.6313Y-7.4625
X8.6609Y-7.72
X8.6813Y-7.0125
X8.6828Y-6.9897
X8.6828Y-7.405
X8.6888Y-4.3853
X8.6904Y-4.3625
X8.6922Y-6.6353
X8.6938Y-6.6125
X8.7125Y-7.6625
X8.8122Y-3.525
X8.8188Y-5.2125
X8.8638Y-3.4675
X8.8703Y-5.155
X8.8797Y-6.97
X8.8797Y-7.3853
X8.8813Y-7.3625
X8.9313Y-6.9125
X8.9791Y-3.5266
X8.9988Y-3.7234
X9.0Y-5.9625
X9.0063Y-7.4625
X9.0516Y-5.905
X9.0563Y-3.825
X9.0578Y-3.8022
X9.0578Y-7.405
X9.0606Y-3.4478
X9.0622Y-3.425
X9.0672Y-5.1353
X9.0688Y-5.1125
X9.1197Y-3.5266
X9.1394Y-3.7234
X9.191Y-4.4625
X9.1938Y-6.7125
X9.2426Y-4.405
X9.2453Y-6.655
X9.2484Y-5.8853
X9.25Y-5.8625
X9.2547Y-3.7825
X9.2547Y-7.3853
X9.2563Y-7.3625
X9.3063Y-3.725
X9.4313Y-7.0125
X9.4328Y-6.9897
X9.4394Y-4.3853
X9.441Y-4.3625
X9.4422Y-6.6353
X9.4438Y-6.6125
X9.5688Y-5.2125
X9.5688Y-7.4625
X9.6203Y-5.155
X9.6203Y-7.405
X9.6297Y-6.97
X9.6813Y-6.9125
X9.7291Y-3.5266
X9.7488Y-3.7234
X9.75Y-5.9625
X9.8016Y-5.905
X9.8063Y-3.825
X9.8078Y-3.8022
X9.8172Y-5.1353
X9.8172Y-7.3853
X9.8188Y-5.1125
X9.8188Y-7.3625
X9.9378Y-3.525
X9.94Y-4.4625
X9.9438Y-6.7125
X9.9894Y-3.4675
X9.9916Y-4.405
X9.9953Y-6.655
X9.9984Y-5.8853
X10.0Y-5.8625
X10.0047Y-3.7825
X10.0563Y-3.725
X10.1813Y-7.0125
X10.1813Y-7.7625
X10.1828Y-6.9897
X10.1828Y-7.7397
X10.1862Y-3.4478
X10.1878Y-3.425
X10.1884Y-4.3853
X10.19Y-4.3625
X10.1922Y-6.6353
X10.1938Y-6.6125
X10.2453Y-3.5266
X10.265Y-3.7234
X10.3188Y-5.2125
X10.3188Y-7.4625
X10.3703Y-5.155
X10.3703Y-7.405
X10.3797Y-6.97
X10.3797Y-7.72
X10.4313Y-6.9125
X10.4313Y-7.6625
X10.4791Y-3.5266
X10.4988Y-3.7234
X10.501Y-5.9625
X10.5526Y-5.905
X10.5563Y-3.825
X10.5578Y-3.8022
X10.5672Y-5.1353
X10.5672Y-7.3853
X10.5688Y-5.1125
X10.5688Y-7.3625
X10.6874Y-3.525
X10.6902Y-4.4625
X10.6938Y-6.7125
X10.739Y-3.4675
X10.7418Y-4.405
X10.7453Y-6.655
X10.7494Y-5.8853
X10.751Y-5.8625
X10.7547Y-3.7825
X10.8063Y-3.725
X10.9313Y-7.0125
X10.9328Y-6.9897
X10.9358Y-3.4478
X10.9374Y-3.425
X10.9386Y-4.3853
X10.9402Y-4.3625
X10.9422Y-6.6353
X10.9438Y-6.6125
X10.9949Y-3.5266
X11.0146Y-3.7234
X11.0688Y-5.2125
X11.1203Y-5.155
X11.1297Y-6.97
X11.1625Y-6.7125
X11.1813Y-6.9125
X11.2141Y-6.655
X11.2291Y-3.5266
X11.2488Y-3.7234
X11.2563Y-5.9625
X11.3063Y-3.825
X11.3078Y-3.8022
X11.3078Y-5.905
X11.3172Y-5.1353
X11.3188Y-5.1125
X11.4109Y-6.6353
X11.4125Y-6.6125
X11.4372Y-3.525
X11.4438Y-4.4625
X11.4888Y-3.4675
X11.4953Y-4.405
X11.5047Y-3.7825
X11.5047Y-5.8853
X11.5063Y-5.8625
X11.5563Y-3.725
X11.5875Y-7.0125
X11.5891Y-6.9897
X11.6856Y-3.4478
X11.6872Y-3.425
X11.6922Y-4.3853
X11.6938Y-4.3625
X11.725Y-5.9625
X11.7447Y-3.5266
X11.7644Y-3.7234
X11.7766Y-5.905
X11.7859Y-6.97
X11.8188Y-4.4625
X11.8188Y-6.7125
X11.8375Y-6.9125
X11.8703Y-4.405
X11.8703Y-6.655
X11.9625Y-7.0125
X11.9641Y-6.9897
X11.9734Y-5.8853
X11.975Y-5.8625
X12.0063Y-7.4625
X12.0563Y-5.5125
X12.0578Y-5.4897
X12.0578Y-7.405
X12.0672Y-4.3853
X12.0672Y-6.6353
X12.0688Y-4.3625
X12.0688Y-6.6125
X12.15Y-6.2625
X12.1516Y-5.8647
X12.1516Y-6.2397
X12.1609Y-6.97
X12.1789Y-3.525
X12.1938Y-4.4625
X12.1938Y-6.7125
X12.2125Y-6.9125
X12.2305Y-3.4675
X12.2453Y-4.405
X12.2453Y-6.655
X12.2547Y-5.47
X12.2547Y-7.3853
X12.2563Y-7.3625
X12.3063Y-5.4125
X12.3484Y-5.845
X12.3484Y-6.22
X12.35Y-5.5375
X12.4Y-6.1625
X12.4075Y-5.5891
X12.4272Y-5.7859
X12.4274Y-3.4478
X12.4289Y-3.425
X12.4422Y-4.3853
X12.4422Y-6.6353
X12.4438Y-4.3625
X12.4438Y-6.6125
X12.45Y-5.7875
X12.4864Y-3.5266
X12.5061Y-3.7234
X13.1242Y-4.4625
X13.1246Y-5.2125
X13.1252Y-7.4625
X13.1313Y-3.525
X13.1758Y-4.405
X13.1762Y-5.155
X13.1768Y-7.405
X13.1828Y-3.4675
X13.3726Y-4.3853
X13.373Y-5.1353
X13.3736Y-7.3853
X13.3742Y-4.3625
X13.3746Y-5.1125
X13.3752Y-7.3625
X13.3797Y-3.4478
X13.3813Y-3.425
X13.4387Y-3.5266
X13.4584Y-3.7234
X13.8748Y-4.4625
X13.8748Y-5.2125
X13.8748Y-7.4625
X13.875Y-3.525
X13.875Y-6.7125
X13.9264Y-4.405
X13.9264Y-5.155
X13.9264Y-7.405
X13.9266Y-3.4675
X13.9266Y-6.655
X14.1232Y-4.3853
X14.1232Y-5.1353
X14.1232Y-7.3853
X14.1234Y-3.4478
X14.1234Y-6.6353
X14.1248Y-4.3625
X14.1248Y-5.1125
X14.1248Y-7.3625
X14.125Y-3.425
X14.125Y-6.6125
X14.1825Y-3.5266
X14.2022Y-3.7234
X14.625Y-7.4625
X14.6254Y-5.2125
X14.6313Y-3.525
X14.6313Y-4.4625
X14.6766Y-7.405
X14.677Y-5.155
X14.6828Y-3.4675
X14.6828Y-4.405
X14.8734Y-7.3853
X14.8738Y-5.1353
X14.875Y-7.3625
X14.8754Y-5.1125
X14.8797Y-3.4478
X14.8797Y-4.3853
X14.8813Y-3.425
X14.8813Y-4.3625
X14.9387Y-3.5266
X14.9584Y-3.7234
T3
G00X8.1375Y-2.3598
M15
G01X8.1375Y-2.3283
M16
G05
G00X8.1375Y-2.5066
M15
G01X8.1375Y-2.4475
M16
G05
G00X8.478Y-2.3598
M15
G01X8.478Y-2.3283
M16
G05
G00X8.478Y-2.5066
M15
G01X8.478Y-2.4475
M16
G05
T0
M30
