M48
; DRILL file {KiCad 6.99.0-unknown-e6dc28fb2e~146~ubuntu21.10.1} date Sun 16 Jan 2022 11:48:21 PM EST
; FORMAT={-:-/ absolute / inch / decimal}
; #@! TF.CreationDate,2022-01-16T23:48:21-05:00
; #@! TF.GenerationSoftware,Kicad,Pcbnew,6.99.0-unknown-e6dc28fb2e~146~ubuntu21.10.1
; #@! TF.FileFunction,NonPlated,1,2,NPTH
FMAT,2
INCH
; #@! TA.AperFunction,NonPlated,NPTH,ComponentDrill
T1C0.0670
; #@! TA.AperFunction,NonPlated,NPTH,ComponentDrill
T2C0.0689
; #@! TA.AperFunction,NonPlated,NPTH,ComponentDrill
T3C0.1200
; #@! TA.AperFunction,NonPlated,NPTH,ComponentDrill
T4C0.1570
%
G90
G05
T1
X12.25Y-5.4875
X12.25Y-5.8875
T2
X1.6372Y-4.5625
X1.6438Y-3.625
X1.7375Y-6.0625
X1.7375Y-6.8125
X1.8313Y-5.3125
X1.8313Y-7.5625
X1.919Y-6.0625
X2.0188Y-6.8125
X2.0372Y-4.5625
X2.0438Y-3.625
X2.1375Y-6.0625
X2.1375Y-6.8125
X2.2313Y-5.3125
X2.2313Y-7.5625
X2.3Y-6.8125
X2.319Y-6.0625
X2.3872Y-4.5625
X2.4188Y-6.8125
X2.5813Y-3.625
X2.5813Y-6.8125
X2.7Y-6.8125
X2.7688Y-5.3125
X2.7872Y-4.5625
X2.9502Y-6.0625
X2.9813Y-3.625
X2.9813Y-6.8125
X3.1372Y-4.5625
X3.1384Y-3.625
X3.1438Y-6.8125
X3.1688Y-5.3125
X3.3313Y-3.625
X3.3313Y-6.8125
X3.3502Y-6.0625
X3.5188Y-5.3125
X3.5188Y-7.5625
X3.5372Y-4.5625
X3.5384Y-3.625
X3.5438Y-6.8125
X3.6996Y-6.0625
X3.7063Y-7.5625
X3.7313Y-3.625
X3.7313Y-6.8125
X3.8874Y-4.5625
X3.888Y-3.625
X3.8938Y-6.8125
X3.9188Y-5.3125
X3.9188Y-7.5625
X4.0813Y-3.625
X4.0813Y-6.8125
X4.0996Y-6.0625
X4.1063Y-7.5625
X4.2688Y-5.3125
X4.2688Y-7.5625
X4.2874Y-4.5625
X4.288Y-3.625
X4.2938Y-6.8125
X4.4504Y-6.0625
X4.4813Y-3.625
X4.4813Y-6.8125
X4.6376Y-3.625
X4.6384Y-4.5625
X4.6438Y-6.8125
X4.6688Y-5.3125
X4.6688Y-7.5625
X4.8313Y-3.625
X4.8313Y-6.8125
X4.8504Y-6.0625
X5.0188Y-5.3125
X5.0376Y-3.625
X5.0384Y-4.5625
X5.0438Y-6.8125
X5.2002Y-6.0625
X5.2063Y-7.5625
X5.2313Y-3.625
X5.2313Y-6.8125
X5.3874Y-3.625
X5.3892Y-4.5625
X5.3938Y-6.8125
X5.3938Y-7.5625
X5.4188Y-5.3125
X5.5813Y-6.8125
X5.6002Y-6.0625
X5.6063Y-7.5625
X5.7688Y-3.625
X5.7688Y-5.3125
X5.7688Y-7.5625
X5.7874Y-3.625
X5.7892Y-4.5625
X5.7938Y-6.8125
X5.7938Y-7.5625
X5.9504Y-6.0625
X5.9813Y-6.8125
X6.1402Y-4.5625
X6.1438Y-6.8125
X6.1688Y-3.625
X6.1688Y-5.3125
X6.1688Y-7.5625
X6.3313Y-6.8125
X6.3313Y-7.5625
X6.3313Y-7.5625
X6.3504Y-6.0625
X6.513Y-3.625
X6.5188Y-5.3125
X6.5402Y-4.5625
X6.5438Y-6.8125
X6.6998Y-6.0625
X6.7063Y-7.5625
X6.7313Y-6.8125
X6.7313Y-7.5625
X6.7313Y-7.5625
X6.8912Y-4.5625
X6.8938Y-6.8125
X6.8938Y-7.5625
X6.913Y-3.625
X6.9188Y-5.3125
X7.0813Y-6.8125
X7.0998Y-6.0625
X7.1063Y-7.5625
X7.263Y-3.625
X7.2688Y-5.3125
X7.2912Y-4.5625
X7.2938Y-6.8125
X7.2938Y-7.5625
X7.4496Y-6.0625
X7.4563Y-7.5625
X7.4813Y-6.8125
X7.6408Y-4.5625
X7.6438Y-6.8125
X7.663Y-3.625
X7.6688Y-5.3125
X7.8313Y-6.8125
X7.8313Y-7.5625
X7.8496Y-6.0625
X7.8563Y-7.5625
X8.0126Y-3.625
X8.0188Y-5.3125
X8.0408Y-4.5625
X8.0438Y-6.8125
X8.2Y-6.0625
X8.2313Y-6.8125
X8.2313Y-7.5625
X8.3625Y-7.5625
X8.3904Y-4.5625
X8.3938Y-6.8125
X8.4126Y-3.625
X8.4188Y-5.3125
X8.5813Y-6.8125
X8.5813Y-7.5625
X8.6Y-6.0625
X8.7622Y-3.625
X8.7625Y-7.5625
X8.7688Y-5.3125
X8.7904Y-4.5625
X8.7938Y-6.8125
X8.95Y-6.0625
X8.9563Y-3.625
X8.9563Y-7.5625
X8.9813Y-6.8125
X8.9813Y-7.5625
X9.141Y-4.5625
X9.1438Y-6.8125
X9.1622Y-3.625
X9.1688Y-5.3125
X9.3313Y-6.8125
X9.35Y-6.0625
X9.3563Y-3.625
X9.3563Y-7.5625
X9.5188Y-5.3125
X9.5188Y-7.5625
X9.541Y-4.5625
X9.5438Y-6.8125
X9.7Y-6.0625
X9.7063Y-3.625
X9.7313Y-6.8125
X9.8878Y-3.625
X9.89Y-4.5625
X9.8938Y-6.8125
X9.9188Y-5.3125
X9.9188Y-7.5625
X10.0813Y-6.8125
X10.0813Y-7.5625
X10.1Y-6.0625
X10.1063Y-3.625
X10.2688Y-5.3125
X10.2688Y-7.5625
X10.2878Y-3.625
X10.29Y-4.5625
X10.2938Y-6.8125
X10.451Y-6.0625
X10.4563Y-3.625
X10.4813Y-6.8125
X10.4813Y-7.5625
X10.6374Y-3.625
X10.6402Y-4.5625
X10.6438Y-6.8125
X10.6688Y-5.3125
X10.6688Y-7.5625
X10.8313Y-6.8125
X10.851Y-6.0625
X10.8563Y-3.625
X11.0188Y-5.3125
X11.0374Y-3.625
X11.0402Y-4.5625
X11.0438Y-6.8125
X11.1125Y-6.8125
X11.2063Y-3.625
X11.2063Y-6.0625
X11.2313Y-6.8125
X11.3872Y-3.625
X11.3938Y-4.5625
X11.4188Y-5.3125
X11.4875Y-6.8125
X11.5125Y-6.8125
X11.6063Y-3.625
X11.6063Y-6.0625
X11.675Y-6.0625
X11.7688Y-4.5625
X11.7688Y-6.8125
X11.7872Y-3.625
X11.7938Y-4.5625
X11.8625Y-6.8125
X11.8875Y-6.8125
X11.9563Y-5.3125
X11.9563Y-7.5625
X12.05Y-6.0625
X12.075Y-6.0625
X12.1289Y-3.625
X12.1438Y-4.5625
X12.1438Y-6.8125
X12.1688Y-4.5625
X12.1688Y-6.8125
X12.2625Y-6.8125
X12.3563Y-5.3125
X12.3563Y-7.5625
X12.45Y-6.0625
X12.5289Y-3.625
X12.5438Y-4.5625
X12.5438Y-6.8125
X13.0742Y-4.5625
X13.0746Y-5.3125
X13.0752Y-7.5625
X13.0813Y-3.625
X13.4742Y-4.5625
X13.4746Y-5.3125
X13.4752Y-7.5625
X13.4813Y-3.625
X13.8248Y-4.5625
X13.8248Y-5.3125
X13.8248Y-7.5625
X13.825Y-3.625
X13.825Y-6.8125
X14.2248Y-4.5625
X14.2248Y-5.3125
X14.2248Y-7.5625
X14.225Y-3.625
X14.225Y-6.8125
X14.575Y-7.5625
X14.5754Y-5.3125
X14.5813Y-3.625
X14.5813Y-4.5625
X14.975Y-7.5625
X14.9754Y-5.3125
X14.9813Y-3.625
X14.9813Y-4.5625
T3
X1.7488Y-6.5375
X2.03Y-6.5375
X2.6888Y-6.5375
X2.97Y-6.5375
X3.7188Y-7.8375
X5.1238Y-7.8375
X6.0613Y-7.8375
X6.0638Y-7.8375
X6.6238Y-7.8375
X7.0013Y-7.8375
X7.5638Y-7.8375
X8.0925Y-7.8375
X8.2188Y-7.8375
X9.0325Y-7.8375
X11.2175Y-6.5375
X11.405Y-6.3375
X11.4988Y-4.2875
X11.4988Y-6.5375
X12.1575Y-6.5375
X12.345Y-6.3375
X12.4388Y-4.2875
X12.4388Y-6.5375
X12.525Y-5.2175
X12.525Y-6.1575
T4
X1.7488Y-7.1375
X1.8372Y-4.5625
X1.8438Y-3.625
X1.9375Y-6.0625
X1.9375Y-6.8125
X2.03Y-7.1375
X2.0313Y-5.3125
X2.0313Y-7.5625
X2.119Y-6.0625
X2.2188Y-6.8125
X2.5Y-6.8125
X2.5872Y-4.5625
X2.6888Y-7.1375
X2.7813Y-3.625
X2.7813Y-6.8125
X2.9688Y-5.3125
X2.97Y-7.1375
X3.1502Y-6.0625
X3.3372Y-4.5625
X3.3384Y-3.625
X3.3438Y-6.8125
X3.5313Y-3.625
X3.5313Y-6.8125
X3.7188Y-5.3125
X3.7188Y-7.2375
X3.7188Y-7.5625
X3.8996Y-6.0625
X3.9063Y-7.5625
X4.0874Y-4.5625
X4.088Y-3.625
X4.0938Y-6.8125
X4.2813Y-3.625
X4.2813Y-6.8125
X4.4688Y-5.3125
X4.4688Y-7.5625
X4.6504Y-6.0625
X4.8376Y-3.625
X4.8384Y-4.5625
X4.8438Y-6.8125
X5.0313Y-3.625
X5.0313Y-6.8125
X5.1238Y-7.2375
X5.2188Y-5.3125
X5.4002Y-6.0625
X5.4063Y-7.5625
X5.5874Y-3.625
X5.5892Y-4.5625
X5.5938Y-6.8125
X5.5938Y-7.5625
X5.7813Y-6.8125
X5.9688Y-3.625
X5.9688Y-5.3125
X5.9688Y-7.5625
X6.0613Y-7.2375
X6.0638Y-7.2375
X6.1504Y-6.0625
X6.3402Y-4.5625
X6.3438Y-6.8125
X6.5313Y-6.8125
X6.5313Y-7.5625
X6.5313Y-7.5625
X6.6238Y-7.2375
X6.713Y-3.625
X6.7188Y-5.3125
X6.8998Y-6.0625
X6.9063Y-7.5625
X7.0013Y-7.2375
X7.0912Y-4.5625
X7.0938Y-6.8125
X7.0938Y-7.5625
X7.2813Y-6.8125
X7.463Y-3.625
X7.4688Y-5.3125
X7.5638Y-7.2375
X7.6496Y-6.0625
X7.6563Y-7.5625
X7.8408Y-4.5625
X7.8438Y-6.8125
X8.0313Y-6.8125
X8.0313Y-7.5625
X8.0925Y-7.2375
X8.2126Y-3.625
X8.2188Y-5.3125
X8.2188Y-7.2375
X8.4Y-6.0625
X8.5625Y-7.5625
X8.5904Y-4.5625
X8.5938Y-6.8125
X8.7813Y-6.8125
X8.7813Y-7.5625
X8.9622Y-3.625
X8.9688Y-5.3125
X9.0325Y-7.2375
X9.15Y-6.0625
X9.1563Y-3.625
X9.1563Y-7.5625
X9.341Y-4.5625
X9.3438Y-6.8125
X9.5313Y-6.8125
X9.7188Y-5.3125
X9.7188Y-7.5625
X9.9Y-6.0625
X9.9063Y-3.625
X10.0878Y-3.625
X10.09Y-4.5625
X10.0938Y-6.8125
X10.2813Y-6.8125
X10.2813Y-7.5625
X10.4688Y-5.3125
X10.4688Y-7.5625
X10.651Y-6.0625
X10.6563Y-3.625
X10.8374Y-3.625
X10.8402Y-4.5625
X10.8438Y-6.8125
X11.0313Y-6.8125
X11.2175Y-7.1375
X11.2188Y-5.3125
X11.3125Y-6.8125
X11.405Y-5.7375
X11.4063Y-3.625
X11.4063Y-6.0625
X11.4988Y-4.8875
X11.4988Y-7.1375
X11.5872Y-3.625
X11.5938Y-4.5625
X11.6875Y-6.8125
X11.875Y-6.0625
X11.925Y-5.2175
X11.925Y-6.1575
X11.9688Y-4.5625
X11.9688Y-6.8125
X12.0625Y-6.8125
X12.1563Y-5.3125
X12.1563Y-7.5625
X12.1575Y-7.1375
X12.25Y-5.6875
X12.25Y-6.0625
X12.3289Y-3.625
X12.3438Y-4.5625
X12.3438Y-6.8125
X12.345Y-5.7375
X12.4388Y-4.8875
X12.4388Y-7.1375
X13.2742Y-4.5625
X13.2746Y-5.3125
X13.2752Y-7.5625
X13.2813Y-3.625
X14.0248Y-4.5625
X14.0248Y-5.3125
X14.0248Y-7.5625
X14.025Y-3.625
X14.025Y-6.8125
X14.775Y-7.5625
X14.7754Y-5.3125
X14.7813Y-3.625
X14.7813Y-4.5625
T0
M30
